<svg width="20" height="20" viewBox="0 0 20 20" fill="none" xmlns="http://www.w3.org/2000/svg">
<g clip-path="url(#clip0_40_50)">
<path d="M17.188 1.506H15.226V0.845998C15.226 0.493998 14.934 0.197998 14.572 0.197998C14.21 0.199998 13.92 0.489998 13.92 0.847998V1.508H6.08V0.847998C6.08 0.495998 5.788 0.199998 5.426 0.199998C5.062 0.199998 4.772 0.489998 4.772 0.847998V1.508H2.81C1.734 1.508 0.852001 2.384 0.852001 3.466V17.844C0.852001 18.92 1.728 19.802 2.81 19.802H17.188C18.264 19.802 19.146 18.926 19.146 17.844V3.464C19.146 2.388 18.27 1.506 17.188 1.506ZM17.84 17.184C17.84 17.908 17.254 18.494 16.53 18.494H3.47C2.746 18.494 2.16 17.908 2.16 17.184V7.386H17.84V17.184ZM17.84 6.08H2.16V4.124C2.16 3.4 2.746 2.814 3.47 2.814H4.774V3.474C4.774 3.826 5.066 4.122 5.428 4.122C5.792 4.122 6.082 3.832 6.082 3.474V2.814H13.922V3.474C13.922 3.826 14.214 4.122 14.576 4.122C14.94 4.122 15.23 3.832 15.23 3.474V2.814H16.534C17.258 2.814 17.844 3.4 17.844 4.124V6.08H17.84Z" fill="#33647F" fill-opacity="0.5"/>
<path d="M13.266 9.34601H15.88V11.96H13.266V9.34601Z" fill="#33647F" fill-opacity="0.5"/>
<path d="M13.266 13.92H15.88V16.534H13.266V13.92Z" fill="#33647F" fill-opacity="0.5"/>
<path d="M8.694 13.92H11.308V16.534H8.694V13.92Z" fill="#33647F" fill-opacity="0.5"/>
<path d="M8.694 9.34601H11.308V11.96H8.694V9.34601Z" fill="#33647F" fill-opacity="0.5"/>
<path d="M4.12 13.92H6.734V16.534H4.12V13.92Z" fill="#33647F" fill-opacity="0.5"/>
<path d="M4.12 9.34601H6.734V11.96H4.12V9.34601Z" fill="#33647F" fill-opacity="0.5"/>
</g>
<defs>
<clipPath id="clip0_40_50">
<rect width="20" height="20" fill="white"/>
</clipPath>
</defs>
</svg>
