<svg width="33" height="33" viewBox="0 0 33 33" fill="none" xmlns="http://www.w3.org/2000/svg">
<path d="M28.1672 4.83276C25.0507 1.71626 20.9072 0 16.5 0C12.1185 0 7.93088 1.73456 4.83269 4.83276C1.71625 7.9492 0 12.0928 0 16.5C0 19.9357 1.04588 23.2288 3.02452 26.0234C4.9594 28.7561 7.63459 30.8136 10.7608 31.9736C10.9708 32.0515 11.2136 31.988 11.3581 31.7994C11.4297 31.7058 11.4632 31.5883 11.4632 31.4705V22.0579C11.4632 21.7701 11.2298 21.5369 10.9421 21.5369H6.60005V17.7158H10.9421C11.2299 17.7158 11.4632 17.4825 11.4632 17.1948V16.5C11.4632 11.9664 15.7647 7.98948 20.6684 7.98948H22.9263V11.8105H20.6684C19.198 11.8105 17.8609 12.2338 16.9035 13.0022C15.8442 13.8525 15.2842 15.062 15.2842 16.5V17.1947C15.2842 17.4825 15.5175 17.7158 15.8052 17.7158H17.8595C18.1473 17.7158 18.3805 17.4825 18.3805 17.1947C18.3805 16.907 18.1472 16.6737 17.8595 16.6737H16.3263V16.5C16.3263 13.8079 18.6653 12.8527 20.6683 12.8527H23.4473C23.7351 12.8527 23.9683 12.6193 23.9683 12.3316V7.46844C23.9683 7.18066 23.735 6.9474 23.4473 6.9474H20.6683C18.1213 6.9474 15.5396 7.96061 13.5853 9.7272C11.5448 11.5718 10.421 13.977 10.421 16.5001V16.6738H6.07888C5.7911 16.6738 5.55785 16.9071 5.55785 17.1948V22.058C5.55785 22.3458 5.79117 22.579 6.07888 22.579H10.421V30.7161C4.78119 28.2998 1.04208 22.6802 1.04208 16.5C1.04208 7.97646 7.97644 1.04208 16.4998 1.04208C25.0139 1.04208 31.9578 7.98587 31.9578 16.5001C31.9578 25.0235 25.0234 31.9579 16.4999 31.9579C16.4429 31.9579 16.385 31.9575 16.3262 31.9568V22.579H23.4473C23.7351 22.579 23.9683 22.3456 23.9683 22.0579V17.1947C23.9683 16.907 23.735 16.6737 23.4473 16.6737H20.3976C20.1098 16.6737 19.8765 16.907 19.8765 17.1947C19.8765 17.4825 20.1098 17.7158 20.3976 17.7158H22.9263V21.5368H15.8052C15.5174 21.5368 15.2842 21.7701 15.2842 22.0579V32.463C15.2842 32.7417 15.5038 32.9716 15.7823 32.9836C16.0405 32.9946 16.2753 33 16.5 33C20.9073 33 25.0508 31.2837 28.1672 28.1672C31.2654 25.069 33 20.8815 33 16.4999C32.9999 12.0928 31.2836 7.9492 28.1672 4.83276Z" fill="white"/>
</svg>
