<svg width="20" height="20" viewBox="0 0 20 20" fill="none" xmlns="http://www.w3.org/2000/svg">
<path d="M9.99998 0C4.4862 0 0 4.4862 0 9.99998C0 15.5138 4.4862 20 9.99998 20C15.5138 20 20 15.5138 20 9.99998C20 4.4862 15.5138 0 9.99998 0ZM9.6061 18.9508C8.64881 18.9508 7.61591 17.176 7.07381 14.3269H12.1374C11.5955 17.176 10.5639 18.9508 9.6061 18.9508ZM6.90977 13.3013C6.79234 12.4439 6.71948 11.5094 6.70043 10.5128H12.512C12.493 11.5094 12.4199 12.4439 12.3032 13.3013H6.90977ZM1.05164 10.5128H5.67079C5.68979 11.4513 5.76043 12.3938 5.88038 13.3013H1.66266C1.31634 12.4299 1.10727 11.4924 1.05164 10.5128ZM9.6061 1.0492C10.5489 1.0492 11.5655 2.7707 12.1143 5.5471H7.09779C7.64623 2.7707 8.66309 1.0492 9.6061 1.0492ZM12.2857 6.57229C12.4134 7.4637 12.492 8.44201 12.512 9.48717H6.69996C6.71999 8.44201 6.79839 7.46422 6.92606 6.57229H12.2857ZM5.67083 9.48717H1.05164C1.10971 8.46105 1.33333 7.4785 1.70919 6.57229H5.89741C5.76673 7.51903 5.69035 8.50509 5.67083 9.48717ZM13.5417 10.5128H18.9483C18.8927 11.4924 18.6829 12.4299 18.3373 13.3013H13.3318C13.4515 12.3938 13.5226 11.4513 13.5417 10.5128ZM13.5417 9.48717C13.5216 8.50514 13.445 7.51903 13.3148 6.57229H18.2907C18.6668 7.4785 18.8902 8.46105 18.9483 9.48717H13.5417ZM17.781 5.54663H13.15C12.8115 3.74249 12.2611 2.16522 11.5119 1.16259C14.1937 1.6211 16.4713 3.26824 17.781 5.54663ZM7.55132 1.37394C6.87799 2.38004 6.37843 3.8657 6.06317 5.5471H2.21904C3.3734 3.53843 5.2779 2.02 7.55132 1.37394ZM2.14266 14.3269H6.04091C6.35446 16.0597 6.86148 17.5951 7.55136 18.6268C5.22987 17.9657 3.28827 16.3992 2.14266 14.3269ZM11.5114 18.8371C12.2776 17.8105 12.8355 16.1828 13.171 14.3269H17.8575C16.561 16.6722 14.2438 18.3704 11.5114 18.8371Z" fill="#33647F" fill-opacity="0.5"/>
</svg>
