<svg width="30" height="30" viewBox="0 0 30 30" fill="none" xmlns="http://www.w3.org/2000/svg">
<path d="M15 30C23.2708 30 30 23.2708 30 15C30 6.7292 23.2708 0 15 0C6.7292 0 0 6.7292 0 15C0 23.2708 6.7292 30 15 30ZM15 1.49878C22.4449 1.49878 28.5012 7.55506 28.5012 15C28.5012 22.4449 22.4449 28.5012 15 28.5012C7.55506 28.5012 1.49878 22.4449 1.49878 15C1.49878 7.55506 7.55506 1.49878 15 1.49878Z" fill="white"/>
<path d="M8.48487 15.7524H19.7043L16.7679 18.6888C16.4743 18.9825 16.4743 19.4535 16.7679 19.7471C16.9147 19.894 17.1044 19.9674 17.3001 19.9674C17.4959 19.9674 17.6855 19.894 17.8323 19.7471L22.0473 15.5322C22.3409 15.2386 22.3409 14.7675 22.0473 14.4739L17.8323 10.259C17.5387 9.96533 17.0677 9.96533 16.774 10.259C16.4804 10.5526 16.4804 11.0237 16.774 11.3173L19.7104 14.2537H8.48487C8.06888 14.2537 7.73242 14.5901 7.73242 15.0061C7.73242 15.4221 8.06888 15.7524 8.48487 15.7524Z" fill="white"/>
</svg>
