<svg width="20" height="20" viewBox="0 0 20 20" fill="none" xmlns="http://www.w3.org/2000/svg">
<path d="M9.14086 18.5714C8.71373 18.0437 7.6472 17.0148 6.7708 16.2851C4.17408 14.123 3.82067 13.8101 2.76634 12.7397C0.822639 10.7664 -0.00282146 8.78381 7.24384e-06 6.09562C0.00138745 4.78335 0.0825117 4.27777 0.415818 3.50426C0.981297 2.19192 1.81428 1.21676 2.87924 0.62034C3.63351 0.197921 4.00552 0.0102463 5.26511 0.00256834C6.58273 -0.00546017 6.86011 0.163926 7.63518 0.6334C8.57858 1.20483 9.5496 2.42607 9.75032 3.29359L9.87429 3.8294L10.18 3.09147C11.9076 -1.07855 17.4234 -1.01616 19.3429 3.19511C19.9518 4.53105 20.0187 7.3836 19.4787 8.99042C18.7743 11.0865 17.4514 12.6845 14.3932 15.1332C12.3876 16.7392 10.1177 19.169 9.95972 19.5102C9.77629 19.9064 9.95097 19.5723 9.14086 18.5714Z" fill="#FF0000"/>
</svg>
