<svg width="30" height="30" viewBox="0 0 30 30" fill="none" xmlns="http://www.w3.org/2000/svg">
<g clip-path="url(#clip0_12_97)">
<path d="M15 30C23.2708 30 30 23.2708 30 15C30 6.7292 23.2708 0 15 0C6.7292 0 0 6.7292 0 15C0 23.2708 6.7292 30 15 30ZM15 1.49878C22.4449 1.49878 28.5012 7.55506 28.5012 15C28.5012 22.4449 22.4449 28.5012 15 28.5012C7.55506 28.5012 1.49878 22.4449 1.49878 15C1.49878 7.55506 7.55506 1.49878 15 1.49878Z" fill="white"/>
<path d="M12.1676 19.7471C12.3144 19.894 12.5041 19.9674 12.6998 19.9674C12.8956 19.9674 13.0852 19.894 13.2321 19.7471C13.5257 19.4535 13.5257 18.9825 13.2321 18.6888L10.2957 15.7524H21.5151C21.9311 15.7524 22.2675 15.416 22.2675 15C22.2675 14.584 21.9311 14.2475 21.5151 14.2475H10.2957L13.2321 11.3112C13.5257 11.0175 13.5257 10.5465 13.2321 10.2529C12.9384 9.95921 12.4674 9.95921 12.1737 10.2529L7.95881 14.4678C7.66518 14.7614 7.66518 15.2325 7.95881 15.5261L12.1676 19.7471Z" fill="white"/>
</g>
<defs>
<clipPath id="clip0_12_97">
<rect width="30" height="30" fill="white"/>
</clipPath>
</defs>
</svg>
