<svg width="429" height="463" viewBox="0 0 429 463" fill="none" xmlns="http://www.w3.org/2000/svg">
<path d="M241.125 94.3981H187.875C184.125 94.3981 180.75 97.3948 180.75 101.515V126.613C180.75 130.359 183.75 133.731 187.875 133.731H241.125C244.875 133.731 248.25 130.734 248.25 126.613V101.515C248.25 97.3948 245.25 94.3981 241.125 94.3981ZM234.375 119.121H195V108.258H234.375V119.121Z" fill="#003755"/>
<path d="M421.875 448.765H379.875C375.75 431.159 361.875 417.674 343.875 414.303C336 400.443 321 391.452 304.5 391.452C300.375 391.452 296.25 392.201 292.125 393.325L288.375 345.002C288.375 344.253 288 343.879 288 343.129L283.125 282.07C283.5 280.947 283.875 279.823 283.875 278.699L279.375 221.761C279.375 220.637 279 219.513 278.25 218.389L276.375 195.913H289.875C293.625 195.913 297 192.917 297 188.796V144.219C297 140.473 294 137.102 289.875 137.102H280.5V90.2775H299.625C301.5 90.2775 303.375 89.5283 304.875 88.0299C306.375 86.5316 306.75 84.6586 306.75 82.411C301.5 35.5866 262.125 0 214.875 0C167.625 0 127.875 35.212 123 82.411C122.625 84.284 123.375 86.5316 124.875 88.0299C126.375 89.5283 128.25 90.2775 130.125 90.2775H149.25V137.477H139.875C136.125 137.477 132.75 140.473 132.75 144.594V189.171C132.75 192.917 135.75 196.288 139.875 196.288H150L132.75 448.765H7.125C3.375 448.765 0 451.762 0 455.883C0 460.003 3 463 7.125 463H139.125H241.125H289.875H373.875H421.875C425.625 463 429 460.003 429 455.883C429 451.762 425.625 448.765 421.875 448.765ZM282.375 448.765H249.75C252.75 438.651 261.375 430.41 271.875 427.413C274.125 427.039 275.625 425.54 276.375 423.667C281.625 412.804 292.5 405.687 304.5 405.687C316.5 405.687 327.75 412.804 332.625 423.667C333.75 425.915 336 427.413 338.25 427.788C350.625 428.912 361.125 437.153 364.875 448.765H282.375V448.765ZM146.625 448.765L149.25 409.807H268.125C267 411.306 265.875 413.179 264.75 415.052C249.375 420.296 237.75 433.407 234.75 448.765H146.625ZM214.5 14.2346C252 14.2346 283.5 40.4563 291.375 76.4175H273.75H155.625H138C145.5 40.4563 177 14.2346 214.5 14.2346ZM162.375 90.2775H266.625V136.727H162.375V90.2775ZM146.25 151.337H282.75V182.053H146.25V151.337ZM153.75 352.869H275.25L278.625 395.947H150.75L153.75 352.869ZM159.75 272.331L162.75 229.252H265.875L269.25 272.331H159.75ZM157.875 286.566H269.625L273.75 338.634H154.5L157.875 286.566ZM164.25 195.913H262.5L264 215.392H162.75L164.25 195.913Z" fill="#003755"/>
</svg>
