<svg width="77" height="177" viewBox="0 0 77 177" fill="none" xmlns="http://www.w3.org/2000/svg">
<path d="M65.7033 118.181L3.07827 163.881C0.0782684 166.129 -0.67173 170.624 1.57827 173.621C3.07827 175.494 4.95327 176.618 7.20327 176.618C8.70327 176.618 10.2033 176.243 11.3283 175.119L73.9533 129.419C76.9533 127.171 77.7033 122.676 75.4533 119.679C73.2033 116.682 68.7033 115.933 65.7033 118.181Z" fill="#003755"/>
<path d="M3.07849 12.9193L65.7035 58.6199C66.8285 59.3691 68.3285 60.1183 69.8285 60.1183C72.0785 60.1183 73.9535 58.9945 75.4535 57.1216C77.7035 54.1248 76.9535 49.6296 73.9535 47.3821L11.3285 1.30684C8.3285 -0.940735 3.82849 -0.191542 1.57849 2.80522C-1.04651 6.17658 -0.296507 10.2971 3.07849 12.9193Z" fill="#003755"/>
<path d="M7.20337 95.705H69.8284C73.5784 95.705 76.9534 92.7082 76.9534 88.5877C76.9534 84.8417 73.9534 81.4703 69.8284 81.4703H7.20337C3.45337 81.4703 0.0783691 84.4671 0.0783691 88.5877C0.0783691 92.3336 3.07837 95.705 7.20337 95.705Z" fill="#003755"/>
</svg>
