<svg width="164" height="463" viewBox="0 0 164 463" fill="none" xmlns="http://www.w3.org/2000/svg">
<g clip-path="url(#clip0_105_76)">
<path d="M154.703 145.181L92.0783 190.881C89.0783 193.129 88.3283 197.624 90.5783 200.621C92.0783 202.494 93.9533 203.618 96.2033 203.618C97.7033 203.618 99.2033 203.243 100.328 202.119L162.953 156.419C165.953 154.171 166.703 149.676 164.453 146.679C162.203 143.682 157.703 142.933 154.703 145.181Z" fill="#FF0000"/>
<path d="M92.0785 39.9193L154.703 85.6199C155.828 86.3691 157.328 87.1183 158.828 87.1183C161.078 87.1183 162.953 85.9945 164.453 84.1216C166.703 81.1248 165.953 76.6297 162.953 74.3821L100.328 28.3068C97.3285 26.0593 92.8285 26.8085 90.5785 29.8052C87.9535 33.1766 88.7035 37.2971 92.0785 39.9193Z" fill="#FF0000"/>
<path d="M96.2034 122.705H158.828C162.578 122.705 165.953 119.708 165.953 115.588C165.953 111.842 162.953 108.47 158.828 108.47H96.2034C92.4534 108.47 89.0784 111.467 89.0784 115.588C89.0784 119.334 92.0784 122.705 96.2034 122.705Z" fill="#FF0000"/>
</g>
<defs>
<clipPath id="clip0_105_76">
<rect width="164" height="463" fill="white"/>
</clipPath>
</defs>
</svg>
