<svg width="24" height="22" viewBox="0 0 24 22" fill="none" xmlns="http://www.w3.org/2000/svg">
<path fill-rule="evenodd" clip-rule="evenodd" d="M12 20.593C6.37 15.054 1 10.296 1 6.191C1 2.4 4.068 1 6.281 1C7.593 1 10.432 1.501 12 5.457C13.59 1.489 16.464 1.01 17.726 1.01C20.266 1.01 23 2.631 23 6.191C23 10.26 17.864 14.816 12 20.593ZM17.726 0.00999999C15.523 0.00999999 13.28 1.052 12 3.248C10.715 1.042 8.478 0 6.281 0C3.098 0 0 2.187 0 6.191C0 10.852 5.571 15.62 12 22C18.43 15.62 24 10.852 24 6.191C24 2.18 20.905 0.00999999 17.726 0.00999999Z" fill="white"/>
</svg>
