<?xml version="1.0" standalone="no"?>
<!DOCTYPE svg PUBLIC "-//W3C//DTD SVG 20010904//EN"
 "http://www.w3.org/TR/2001/REC-SVG-20010904/DTD/svg10.dtd">
<svg version="1.0" xmlns="http://www.w3.org/2000/svg"
 width="1080.000000pt" height="1280.000000pt" viewBox="0 0 1080.000000 1280.000000"
 preserveAspectRatio="xMidYMid meet">
<metadata>
Created by potrace 1.15, written by Peter Selinger 2001-2017
</metadata>
<g transform="translate(0.000000,1280.000000) scale(0.100000,-0.100000)"
fill="#000000" stroke="none">
<path d="M6038 12760 c-49 -108 -217 -498 -725 -1685 -2458 -5746 -2992 -6984
-3129 -7257 l-34 -68 -63 0 c-34 0 -123 7 -197 15 -203 22 -234 21 -259 -11
-38 -48 -29 -60 62 -89 64 -21 210 -55 233 -55 11 0 1 -50 -25 -129 -42 -125
-154 -382 -346 -796 -92 -198 -187 -405 -211 -460 l-43 -100 -67 -8 c-46 -6
-74 -5 -89 3 -26 14 -69 -1 -84 -29 -6 -11 -11 -43 -11 -71 0 -32 -5 -52 -12
-54 -35 -10 -237 -46 -259 -46 -21 0 -36 25 -139 227 -249 491 -300 583 -324
583 -17 0 -66 -49 -66 -66 0 -8 9 -14 20 -14 11 0 20 -2 20 -5 0 -2 -30 -71
-66 -151 -119 -267 -224 -542 -224 -590 0 -11 15 -14 66 -14 l66 0 94 79 c104
87 220 167 265 184 36 14 42 9 109 -103 45 -76 50 -91 50 -144 0 -44 5 -65 19
-80 10 -12 26 -46 36 -76 50 -158 189 -489 238 -567 13 -21 27 -44 32 -52 7
-12 -3 -13 -60 -8 -37 4 -75 3 -84 -2 -17 -9 -136 10 -126 21 3 3 -16 4 -42 3
-26 -2 -82 -4 -124 -4 -67 -1 -79 -4 -104 -27 -29 -27 -47 -25 -24 3 13 15 12
16 -6 8 -23 -9 -37 -9 -85 0 -31 6 -36 3 -47 -19 -9 -22 -9 -26 5 -27 11 0 12
-2 5 -6 -7 -2 -13 -11 -13 -19 0 -8 -11 -14 -27 -15 -16 0 -37 -4 -47 -8 -18
-7 -18 -8 -2 -14 9 -4 14 -11 11 -17 -10 -16 12 -12 52 10 21 11 55 20 75 20
37 0 50 -13 26 -24 -7 -3 7 -4 31 -1 59 8 64 12 40 36 -14 14 -27 18 -47 13
-26 -5 -26 -5 -8 10 11 9 35 16 53 16 22 0 33 5 33 14 0 35 20 23 26 -15 l7
-41 51 5 c39 4 56 1 70 -12 14 -12 39 -16 111 -16 56 0 98 -5 107 -12 8 -7 43
-13 79 -14 35 -1 98 -10 139 -21 45 -12 87 -17 108 -13 38 7 38 26 1 36 -13 4
27 5 89 3 61 -2 124 1 138 6 24 10 81 3 70 -7 -3 -3 -58 -9 -122 -13 -67 -5
-121 -14 -128 -20 -8 -10 5 -11 59 -6 172 17 223 18 241 8 16 -10 13 -11 -21
-12 -43 -1 -113 -14 -122 -24 -15 -14 10 -16 97 -6 79 9 101 8 141 -5 27 -9
56 -15 66 -13 10 1 23 -1 29 -5 6 -3 19 2 29 13 20 22 74 27 93 8 8 -8 15 -8
26 1 8 7 15 8 18 2 4 -13 112 -41 157 -41 l34 0 -23 -25 c-14 -15 -20 -28 -14
-33 5 -4 51 -6 102 -4 79 3 91 6 81 18 -9 11 -7 14 14 14 14 0 33 -7 41 -16 9
-8 16 -12 16 -8 0 5 6 2 12 -4 10 -10 10 -15 -2 -22 -13 -8 -12 -10 3 -10 27
0 58 20 51 32 -5 8 2 9 23 5 17 -3 35 -1 41 5 15 15 182 24 182 10 0 -13 -27
-21 -90 -24 -32 -2 -44 -7 -42 -17 1 -7 -2 -18 -7 -25 -8 -9 23 -12 126 -14
75 -1 139 -4 141 -6 2 -3 6 -23 9 -46 l6 -41 -39 6 c-21 4 -64 13 -95 21 -91
22 -161 15 -117 -12 18 -11 262 -32 268 -23 8 11 120 24 120 14 0 -5 -7 -17
-17 -27 -19 -22 -8 -23 47 -7 25 8 43 8 55 1 14 -7 31 -3 70 17 50 26 52 27
175 18 69 -4 126 -10 129 -12 2 -3 -2 -12 -10 -21 -11 -14 -11 -18 6 -30 10
-8 27 -14 37 -14 10 0 27 -9 37 -19 19 -19 19 -19 -2 -25 -12 -3 -35 1 -51 9
-16 8 -31 13 -34 10 -14 -13 15 -36 92 -71 62 -27 85 -42 81 -53 -4 -11 -3
-12 10 -1 10 9 35 11 82 7 239 -21 337 -24 398 -13 31 6 36 5 22 -4 -9 -6 -65
-20 -125 -31 -59 -11 -110 -24 -115 -28 -4 -4 66 -16 155 -26 160 -18 163 -18
195 -50 31 -31 36 -33 93 -29 79 5 116 23 48 24 -57 0 -64 17 -10 22 l37 4
-35 11 c-27 9 -30 11 -12 12 13 1 21 5 17 11 -3 5 7 16 22 24 15 8 22 15 16
16 -7 0 -13 4 -13 9 0 18 40 23 78 10 l37 -12 -35 -10 -35 -9 33 -29 c25 -23
28 -29 15 -30 -11 0 -4 -7 17 -16 27 -11 39 -12 53 -4 23 15 94 4 78 -12 -7
-7 -44 -11 -88 -10 -71 2 -75 1 -59 -15 16 -17 74 -22 244 -22 53 0 160 -37
134 -47 -7 -3 -24 2 -37 11 -28 19 -70 22 -59 5 5 -8 -2 -10 -22 -6 -18 3 -35
0 -45 -9 -8 -7 -40 -17 -70 -22 l-54 -9 39 -8 c41 -8 179 -1 211 11 13 5 16 4
11 -4 -11 -18 76 -15 124 4 46 19 60 12 87 -39 14 -28 17 -29 70 -25 30 3 58
9 61 15 4 5 27 14 52 19 l45 10 -75 8 c-89 10 -93 12 -80 37 8 15 21 19 58 18
36 -1 41 -3 22 -8 l-25 -7 30 -6 c33 -7 84 0 101 13 9 8 42 1 142 -27 18 -5
20 -9 11 -20 -14 -17 -55 -18 -99 -3 -26 9 -34 9 -41 -2 -16 -26 -9 -31 31
-24 25 4 40 3 40 -3 0 -6 -6 -12 -12 -15 -7 -2 34 -2 91 1 77 4 102 2 97 -6
-4 -7 -26 -12 -49 -13 -33 0 -38 -2 -22 -9 11 -5 109 -9 217 -9 111 -1 199 -5
203 -10 3 -6 -9 -7 -30 -4 -23 4 -35 2 -35 -6 0 -6 11 -11 23 -11 13 0 27 -3
31 -8 7 -7 66 -10 203 -10 68 -1 94 -9 72 -23 -8 -5 34 -9 104 -9 71 0 117 4
117 10 0 6 -24 10 -52 10 -63 0 -100 9 -92 21 3 5 -21 10 -53 10 l-58 2 70 9
c48 7 75 7 87 -1 9 -6 31 -8 48 -5 16 4 44 1 60 -6 29 -12 30 -14 14 -31 -16
-18 -15 -19 24 -19 42 0 57 14 25 23 -15 4 -15 6 5 12 24 8 27 21 12 59 -6 17
-6 26 1 26 6 0 6 6 0 19 -14 25 -5 31 43 31 45 0 75 13 57 24 -6 4 -15 4 -21
1 -5 -3 -10 1 -10 9 0 8 -8 19 -17 25 -15 8 -14 10 10 16 15 4 52 4 83 0 49
-6 54 -8 42 -22 -12 -15 -7 -16 52 -10 69 8 190 43 190 57 0 12 -28 20 -71 20
-23 0 -38 4 -34 10 3 5 19 7 34 4 16 -3 31 -2 35 4 10 17 -40 60 -79 68 -25 4
-35 11 -31 20 4 10 -1 13 -17 10 -12 -3 -31 -5 -41 -5 -18 -1 -19 -2 -1 -21
10 -11 15 -23 11 -27 -4 -4 -11 -2 -15 5 -4 7 -38 15 -77 18 -95 7 -111 11
-118 30 -9 23 0 30 18 15 12 -10 19 -8 34 7 11 11 18 23 15 25 -10 10 56 16
164 14 78 -1 114 -5 117 -14 4 -9 14 -9 37 -3 36 11 216 -7 237 -23 7 -6 25
-11 40 -12 129 -10 182 -19 182 -31 0 -11 18 -14 71 -14 44 0 68 -4 64 -10 -3
-5 -22 -10 -41 -10 -23 0 -33 -4 -28 -11 4 -7 20 -8 41 -4 27 5 38 2 47 -11
15 -20 36 -11 36 17 0 17 3 18 23 8 57 -30 59 -31 70 -15 9 12 22 14 49 10 21
-4 35 -10 32 -15 -2 -5 -19 -6 -37 -2 -26 5 -30 3 -19 -8 6 -7 12 -17 12 -21
0 -12 -78 -10 -101 2 -45 25 -1 -48 61 -100 49 -41 65 -65 36 -54 -12 5 -36
-22 -36 -39 0 -16 56 -14 100 3 28 11 63 20 78 20 21 0 24 2 12 10 -8 5 -32
10 -52 10 -29 0 -38 4 -38 18 -1 16 -1 16 -14 -1 -13 -16 -15 -16 -30 8 -11
16 -14 34 -10 47 6 19 3 21 -30 15 -31 -5 -37 -3 -34 11 4 24 78 30 90 8 5 -9
17 -16 27 -16 27 0 33 -11 13 -26 -15 -12 -12 -13 23 -14 22 0 50 3 62 6 21 6
21 7 5 32 l-16 25 42 -6 c36 -4 41 -3 31 9 -6 8 -29 14 -52 14 -41 0 -45 12
-4 16 19 2 83 -14 97 -24 2 -2 -2 -7 -9 -11 -8 -6 3 -11 34 -15 34 -6 45 -11
41 -22 -7 -18 31 -39 47 -26 7 6 50 14 97 18 87 8 104 8 130 -3 17 -7 200 -4
211 3 4 2 27 1 51 -2 l42 -7 -39 -14 c-22 -8 -50 -11 -62 -8 -12 3 -25 0 -28
-6 -4 -5 -18 -14 -31 -19 -44 -17 -27 -32 34 -29 55 3 57 2 53 -22 -3 -23 -2
-23 16 -6 13 11 36 17 66 17 26 0 47 5 47 11 0 5 4 8 8 5 4 -3 42 1 82 8 64
10 72 14 55 23 -19 11 -19 12 9 41 27 29 28 30 8 41 -11 6 -35 8 -54 6 -31 -5
-32 -5 -8 6 l25 11 -25 8 c-14 5 -38 11 -54 15 -60 13 -16 14 65 1 47 -8 85
-10 87 -5 2 5 7 7 12 4 5 -3 4 -20 -1 -37 -5 -17 -8 -33 -6 -34 7 -6 179 -24
228 -24 59 0 113 16 103 31 -3 5 -17 9 -32 9 -19 0 -23 -3 -13 -9 22 -14 -43
-24 -108 -16 -70 9 -124 30 -118 47 2 7 13 12 23 10 10 -1 64 1 118 4 74 5 95
9 81 16 -9 6 -38 8 -64 4 -43 -5 -74 2 -71 18 0 4 -8 17 -18 31 l-19 23 -42
-19 c-47 -21 -65 -24 -57 -10 4 5 -8 13 -26 16 -30 7 -31 8 -13 21 10 8 39 14
64 14 73 1 133 16 150 38 16 20 101 37 101 20 0 -5 -5 -8 -10 -8 -6 0 -9 -6
-8 -12 2 -8 -10 -14 -27 -16 -40 -5 -58 -22 -23 -22 15 0 30 -5 33 -10 3 -6
16 -10 29 -10 12 0 31 -7 42 -15 17 -13 10 -14 -71 -15 -62 0 -86 -3 -79 -10
6 -6 29 -11 50 -10 21 0 50 0 64 0 28 0 108 0 155 1 31 0 104 29 105 41 0 3
-17 10 -37 16 l-38 10 48 1 c35 1 47 5 47 16 0 9 -6 18 -12 20 -15 6 -22 65
-8 65 6 0 10 -4 10 -10 0 -16 193 -13 216 4 18 14 18 15 2 21 -10 4 -18 13
-18 20 0 15 30 24 80 26 l35 1 -32 9 c-18 5 -33 11 -33 12 0 2 27 3 60 3 33
-1 60 -4 60 -8 0 -5 -9 -8 -20 -8 -11 0 -20 -4 -20 -9 0 -4 27 -11 59 -14 33
-4 79 -9 103 -12 31 -4 38 -3 23 4 -11 5 -14 10 -7 10 9 1 11 8 7 22 -7 21 -5
21 67 15 49 -5 83 -3 103 5 l30 12 -43 13 c-43 13 -57 12 -100 -9 -16 -8 -47
-7 -111 1 -48 7 -106 13 -127 13 l-39 1 40 9 c22 4 55 5 73 2 20 -3 32 -1 32
6 0 6 -10 11 -22 11 -35 0 -56 16 -41 31 9 9 25 9 71 -1 44 -9 65 -9 80 -1 11
6 46 11 77 11 30 0 72 7 92 15 46 19 123 20 123 2 0 -8 10 -18 22 -24 19 -8 7
-11 -62 -18 -72 -6 -81 -9 -60 -17 35 -15 312 -23 347 -10 16 5 50 6 76 2 33
-5 50 -3 58 6 13 15 5 20 -48 29 -29 4 -40 11 -37 20 4 9 -7 17 -33 24 -49 14
-176 15 -168 1 4 -6 -6 -10 -22 -9 -15 0 -22 3 -15 6 21 8 13 21 -19 32 -43
15 -99 14 -192 -4 -91 -17 -110 -18 -103 -6 8 13 -28 21 -126 28 -48 3 -85 9
-83 13 2 4 25 13 50 20 48 14 57 25 25 33 -38 10 -23 30 18 23 20 -3 47 -6 60
-6 12 0 22 -6 22 -14 0 -14 63 -22 225 -28 96 -4 99 16 8 59 -62 29 -80 33
-198 39 -71 3 -159 8 -195 10 -36 2 -93 4 -127 4 -57 0 -63 2 -69 24 -12 48
14 98 81 156 172 148 864 900 1074 1167 34 43 49 54 96 68 31 8 67 20 81 25
l25 10 -23 41 c-48 85 -175 254 -207 276 -19 13 -48 23 -66 23 -35 0 -75 34
-75 64 0 10 -94 196 -209 414 -282 536 -888 1703 -2156 4152 -485 936 -743
1426 -905 1720 -102 184 -111 207 -175 410 -37 118 -137 424 -223 680 l-156
465 0 218 c-1 246 4 232 -82 225 l-39 -3 -7 -150 c-16 -332 -70 -954 -88 -998
-5 -12 -9 -17 -9 -10 -2 23 -50 447 -115 1003 -36 305 -77 668 -91 805 -14
138 -37 322 -50 410 -13 88 -33 268 -45 400 -11 132 -22 251 -23 265 -3 24 -4
23 -19 -10z m674 -2642 c49 -145 108 -319 130 -388 22 -69 72 -213 110 -320
l70 -195 -6 -865 c-4 -476 -13 -1814 -22 -2974 l-14 -2108 -85 -362 c-47 -198
-89 -370 -94 -381 -6 -15 -14 6 -34 90 -64 270 -68 312 -73 810 -3 253 -19
1871 -35 3595 -17 1724 -33 3155 -35 3180 -6 76 -10 189 -6 185 2 -2 45 -122
94 -267z m-4422 -6653 c593 -86 2156 -347 3115 -520 555 -101 657 -122 676
-143 30 -32 139 -309 139 -353 0 -25 11 -25 -620 7 -339 17 -800 15 -858 -4
-42 -14 -147 -114 -173 -165 -11 -21 -19 -48 -17 -60 3 -21 5 -20 38 13 19 19
44 48 55 64 l20 28 43 -35 c24 -20 60 -42 80 -48 56 -17 430 -32 792 -31 238
0 314 -2 285 -10 -68 -17 -555 -15 -1048 4 -186 7 -222 6 -247 -7 -38 -20 -40
-19 -40 10 0 42 -24 87 -84 154 -32 35 -55 69 -52 76 5 15 -29 41 -69 51 -16
4 -24 12 -21 19 3 8 -7 18 -24 24 -31 10 -31 13 0 98 23 62 -35 129 -155 178
-52 22 -120 23 -143 2 -10 -9 -33 -53 -51 -97 -29 -69 -33 -89 -28 -135 5 -51
4 -54 -13 -45 -35 19 -43 12 -36 -30 6 -36 3 -43 -26 -69 -25 -22 -37 -27 -50
-20 -26 14 -124 -57 -107 -77 6 -8 19 -14 29 -14 23 0 31 -42 23 -124 l-6 -65
-51 -6 c-46 -5 -551 -52 -619 -58 l-29 -2 1 135 c2 146 5 135 -64 229 -28 39
-28 40 -12 176 8 62 9 119 4 150 -8 55 11 125 36 125 6 0 -13 16 -43 35 -53
34 -57 35 -125 29 -38 -4 -72 -9 -75 -13 -3 -3 -18 -12 -33 -19 -21 -9 -38
-32 -65 -90 -39 -83 -44 -139 -22 -221 10 -39 9 -43 -29 -93 -83 -112 -207
-333 -231 -415 -11 -36 -18 -43 -44 -48 -41 -6 -378 -23 -543 -27 l-132 -3
-62 60 c-37 36 -71 81 -85 113 -13 28 -29 52 -35 52 -7 0 -9 10 -4 28 5 20
375 936 480 1185 15 35 17 37 63 37 26 0 157 -16 292 -35z m5240 -126 c587
-68 2638 -531 2863 -645 l27 -15 -36 -36 -36 -36 21 -21 c18 -17 24 -19 41 -8
37 23 54 14 101 -57 l46 -69 -81 -6 c-148 -11 -3556 -44 -3556 -35 0 2 7 29
15 59 8 30 26 123 40 205 29 170 99 536 122 638 l15 69 82 -7 c44 -3 196 -20
336 -36z m3080 -1015 c0 -28 -398 -434 -675 -689 -72 -66 -216 -200 -319 -298
-104 -98 -191 -176 -193 -173 -3 2 2 62 11 133 31 262 62 820 52 941 -4 53 -3
72 7 73 109 12 1117 24 1117 13z m-10283 -1230 c-3 -3 -12 -4 -19 -1 -8 3 -5
6 6 6 11 1 17 -2 13 -5z m1248 -4 c3 -5 -1 -10 -9 -10 -8 0 -18 5 -21 10 -3 6
1 10 9 10 8 0 18 -4 21 -10z m102 -26 c-3 -3 -12 -4 -19 -1 -8 3 -5 6 6 6 11
1 17 -2 13 -5z m573 -8 c0 -8 -7 -16 -15 -20 -15 -5 -21 14 -8 27 11 12 23 8
23 -7z m-225 -5 c3 -5 1 -12 -5 -16 -5 -3 -10 1 -10 9 0 18 6 21 15 7z m142
-8 c-9 -9 -20 -13 -24 -9 -4 4 -1 11 7 16 25 16 35 11 17 -7z m126 -15 c-13
-12 -25 -19 -29 -15 -10 10 16 37 34 37 13 0 12 -4 -5 -22z m57 7 c-7 -8 -16
-15 -21 -15 -5 0 -9 7 -9 15 0 9 9 15 21 15 18 0 19 -2 9 -15z m96 -43 c-8 -9
-19 -13 -22 -9 -10 9 16 38 28 31 6 -4 4 -13 -6 -22z m-869 12 c-3 -3 -12 -4
-19 -1 -8 3 -5 6 6 6 11 1 17 -2 13 -5z m1143 -4 c0 -5 -7 -10 -15 -10 -8 0
-15 5 -15 10 0 6 7 10 15 10 8 0 15 -4 15 -10z m-747 -17 c-7 -2 -19 -2 -25 0
-7 3 -2 5 12 5 14 0 19 -2 13 -5z m1867 -3 c0 -5 -2 -10 -4 -10 -3 0 -8 5 -11
10 -3 6 -1 10 4 10 6 0 11 -4 11 -10z m-1988 -10 c-14 -6 -44 -6 -75 -1 l-52
9 75 0 c55 1 69 -2 52 -8z m377 -6 c2 -2 -10 -4 -27 -4 -17 0 -34 4 -37 10 -5
9 53 3 64 -6z m1528 10 c-3 -3 -12 -4 -19 -1 -8 3 -5 6 6 6 11 1 17 -2 13 -5z
m-1444 -71 c-7 -2 -21 -2 -30 0 -10 3 -4 5 12 5 17 0 24 -2 18 -5z m827 -23
c0 -5 -4 -10 -10 -10 -5 0 -10 5 -10 10 0 6 5 10 10 10 6 0 10 -4 10 -10z
m6737 -16 c-3 -3 -12 -4 -19 -1 -8 3 -5 6 6 6 11 1 17 -2 13 -5z m-6380 -10
c-3 -3 -12 -4 -19 -1 -8 3 -5 6 6 6 11 1 17 -2 13 -5z m6113 -23 c0 -5 12 -12
28 -14 21 -3 18 -4 -12 -6 -34 -1 -37 -3 -25 -17 11 -14 5 -15 -62 -9 -41 4
-90 11 -109 16 -26 6 -18 7 27 3 53 -5 66 -3 89 15 27 22 64 28 64 12z m-6882
-8 c-21 -5 -24 -19 -5 -26 8 -3 6 -7 -6 -12 -23 -10 -28 -4 -20 23 3 15 13 22
27 21 17 -1 17 -2 4 -6z m442 -3 c22 -13 5 -23 -27 -16 -21 6 -24 9 -12 17 18
11 20 11 39 -1z m111 0 c25 -14 24 -37 -1 -45 -34 -11 -90 5 -90 25 0 29 53
40 91 20z m-173 -12 c-5 -16 -48 -24 -48 -9 0 8 17 16 43 20 5 0 7 -5 5 -11z
m-518 -12 c0 -3 -4 -8 -10 -11 -5 -3 -10 -1 -10 4 0 6 5 11 10 11 6 0 10 -2
10 -4z m7010 -51 c52 -13 115 -27 140 -31 43 -7 44 -7 18 -16 -28 -10 -102 5
-113 22 -3 6 -32 10 -63 10 -53 0 -187 31 -201 46 -11 12 122 -7 219 -31z
m-6745 -5 c-3 -5 -15 -10 -26 -10 -10 0 -19 5 -19 10 0 6 12 10 26 10 14 0 23
-4 19 -10z m4205 -52 c0 -5 -7 -3 -15 6 -8 8 -15 18 -15 22 0 3 7 1 15 -6 8
-7 15 -17 15 -22z m2310 2 c0 -5 -7 -7 -15 -4 -8 4 -15 8 -15 10 0 2 7 4 15 4
8 0 15 -4 15 -10z m-2670 -14 c0 -9 18 -16 53 -21 l52 -8 -34 -10 c-26 -8 -39
-7 -60 4 -26 15 -41 49 -22 49 6 0 11 -6 11 -14z m2869 -2 c10 -9 -6 -11 -43
-6 -26 3 -34 7 -25 13 12 7 57 2 68 -7z m-4256 -1 c-7 -2 -19 -2 -25 0 -7 3
-2 5 12 5 14 0 19 -2 13 -5z m-578 -13 c-3 -5 -13 -10 -21 -10 -8 0 -12 5 -9
10 3 6 13 10 21 10 8 0 12 -4 9 -10z m-1345 -4 c0 -3 -4 -8 -10 -11 -5 -3 -10
-1 -10 4 0 6 5 11 10 11 6 0 10 -2 10 -4z m683 -3 c-7 -2 -21 -2 -30 0 -10 3
-4 5 12 5 17 0 24 -2 18 -5z m-453 -18 c14 -8 43 -14 66 -15 34 0 43 -4 52
-25 7 -14 12 -30 12 -35 0 -10 -21 -9 -30 1 -3 3 -43 13 -88 22 -59 11 -92 13
-109 6 -27 -10 -63 -4 -63 12 0 5 11 9 25 9 14 0 25 4 25 10 0 5 -8 7 -17 3
-10 -3 -14 -2 -10 2 4 5 29 12 55 16 26 3 49 7 52 7 3 1 16 -5 30 -13z m197 9
c-3 -3 -12 -4 -19 -1 -8 3 -5 6 6 6 11 1 17 -2 13 -5z m517 -14 c-7 -7 -33 -8
-70 -3 l-59 8 65 5 c72 6 78 4 64 -10z m111 10 c3 -5 -1 -10 -9 -10 -9 0 -16
5 -16 10 0 6 4 10 9 10 6 0 13 -4 16 -10z m375 0 c11 -7 7 -10 -17 -10 -18 0
-33 5 -33 10 0 13 30 13 50 0z m-416 -9 c3 -5 0 -14 -8 -20 -11 -9 -15 -7 -19
9 -5 20 16 29 27 11z m3076 -1 c0 -5 -5 -10 -11 -10 -5 0 -7 5 -4 10 3 6 8 10
11 10 2 0 4 -4 4 -10z m-3475 -20 c3 -5 -1 -10 -10 -10 -9 0 -13 5 -10 10 3 6
8 10 10 10 2 0 7 -4 10 -10z m85 0 c11 -7 5 -10 -23 -10 -23 0 -36 4 -32 10 8
13 35 13 55 0z m1943 3 c-7 -2 -21 -2 -30 0 -10 3 -4 5 12 5 17 0 24 -2 18 -5z
m1027 -15 c10 -6 5 -8 -19 -4 -18 3 -47 6 -63 6 -18 0 -27 4 -23 11 8 12 80 3
105 -13z m105 12 c-3 -5 -16 -10 -28 -10 -18 0 -19 2 -7 10 20 13 43 13 35 0z
m2365 -10 c-8 -5 -18 -6 -24 -3 -5 4 -1 10 10 13 24 9 34 2 14 -10z m-4073 4
c-3 -3 -12 -4 -19 -1 -8 3 -5 6 6 6 11 1 17 -2 13 -5z m1748 -12 c-11 -3 -23
-9 -26 -14 -4 -6 -13 -8 -20 -6 -9 3 -3 10 16 20 16 9 34 13 40 10 5 -4 1 -8
-10 -10z m-3007 -9 c-10 -2 -26 -2 -35 0 -10 3 -2 5 17 5 19 0 27 -2 18 -5z
m232 -3 c0 -5 -4 -10 -10 -10 -5 0 -10 5 -10 10 0 6 5 10 10 10 6 0 10 -4 10
-10z m180 0 c-20 -13 -40 -13 -40 0 0 6 12 10 28 10 21 0 24 -2 12 -10z m210
0 c0 -10 -77 -6 -87 4 -4 3 15 6 40 6 26 0 47 -4 47 -10z m2070 -7 c0 -3 -8
-12 -17 -19 -16 -12 -16 -15 -3 -24 11 -7 1 -10 -38 -10 -33 0 -51 4 -47 10 3
6 15 10 27 10 14 0 18 5 14 15 -3 8 -1 15 4 15 6 0 10 -4 10 -10 0 -5 5 -10
10 -10 6 0 10 9 10 20 0 13 5 18 15 14 8 -4 15 -9 15 -11z m100 7 c0 -5 -4
-10 -10 -10 -5 0 -10 5 -10 10 0 6 5 10 10 10 6 0 10 -4 10 -10z m343 -5 c-3
-9 -19 -23 -36 -31 -27 -15 -29 -15 -24 0 4 10 1 19 -9 23 -23 9 3 23 43 23
25 0 31 -3 26 -15z m-1056 -1 c-3 -3 -12 -4 -19 -1 -8 3 -5 6 6 6 11 1 17 -2
13 -5z m-797 -14 c13 -8 13 -10 -2 -10 -9 0 -20 5 -23 10 -8 13 5 13 25 0z
m2320 0 c0 -5 -7 -7 -15 -4 -8 4 -15 8 -15 10 0 2 7 4 15 4 8 0 15 -4 15 -10z
m-634 -15 c-3 -8 -2 -15 3 -15 4 0 6 -11 3 -25 -4 -24 -3 -25 52 -25 48 0 58
3 72 25 16 24 48 32 70 17 20 -13 23 -63 5 -70 -9 -3 -19 -10 -22 -15 -4 -6
-16 -3 -30 7 -27 18 -122 22 -165 6 -15 -6 -40 -8 -56 -5 -25 6 -26 8 -13 21
27 27 16 60 -15 44 -22 -12 -33 -2 -16 15 9 10 24 11 50 5 31 -7 38 -5 47 11
12 23 24 26 15 4z m1773 -1 c10 -9 -45 -3 -59 6 -11 7 -5 8 20 4 19 -4 37 -8
39 -10z m-5272 -5 c15 -6 48 -14 73 -19 l45 -8 -40 0 c-38 0 -158 36 -123 37
9 1 29 -4 45 -10z m5396 4 c-13 -2 -35 -2 -50 0 -16 2 -5 4 22 4 28 0 40 -2
28 -4z m-1479 -9 c27 -10 7 -24 -32 -23 -23 1 -29 3 -14 6 12 2 22 9 22 14 0
11 3 11 24 3z m1116 -3 c-17 -10 -47 -15 -70 -11 -17 3 34 17 65 19 16 0 17
-1 5 -8z m-4695 -11 c8 -13 -25 -13 -45 0 -12 8 -9 10 12 10 15 0 30 -4 33
-10z m2745 0 c-20 -13 -33 -13 -25 0 3 6 14 10 23 10 15 0 15 -2 2 -10z m2465
0 c7 -12 -12 -12 -40 0 -18 8 -17 9 7 9 15 1 30 -3 33 -9z m-4915 -10 c0 -5
-5 -10 -11 -10 -5 0 -7 5 -4 10 3 6 8 10 11 10 2 0 4 -4 4 -10z m407 4 c-3 -3
-12 -4 -19 -1 -8 3 -5 6 6 6 11 1 17 -2 13 -5z m1503 -4 c12 -8 11 -10 -7 -10
-12 0 -25 5 -28 10 -8 13 15 13 35 0z m815 0 c4 -6 -6 -10 -22 -10 -22 0 -25
2 -13 10 19 12 27 12 35 0z m750 0 c29 -7 28 -8 -10 -8 -22 0 -51 4 -65 8 -23
7 -22 8 10 8 19 0 49 -4 65 -8z m810 0 c-3 -5 -14 -10 -23 -9 -14 0 -13 2 3 9
27 11 27 11 20 0z m-4351 -6 c27 -10 18 -27 -10 -20 -19 5 -25 3 -21 -6 2 -7
18 -12 35 -12 l31 2 -30 -30 c-22 -23 -35 -29 -54 -24 -13 3 -27 2 -30 -4 -3
-5 -34 -10 -68 -10 -57 0 -70 12 -22 22 11 2 19 9 18 15 -1 6 18 16 42 22 50
13 56 23 23 39 -20 9 -17 11 24 11 25 1 53 -2 62 -5z m2611 -14 c4 -6 -6 -10
-22 -10 -22 0 -25 2 -13 10 19 12 27 12 35 0z m1110 0 l50 -7 -65 -1 c-36 0
-74 3 -85 8 -16 7 -13 9 15 8 19 0 58 -3 85 -8z m-4334 -9 c-8 -5 -20 -7 -28
-4 -21 8 -15 13 15 13 20 0 23 -3 13 -9z m79 -1 c0 -5 -4 -10 -10 -10 -5 0
-10 5 -10 10 0 6 5 10 10 10 6 0 10 -4 10 -10z m323 3 c-23 -2 -64 -2 -90 0
-26 2 -7 3 42 3 50 0 71 -1 48 -3z m4350 0 c-7 -2 -19 -2 -25 0 -7 3 -2 5 12
5 14 0 19 -2 13 -5z m-4589 -12 c4 -5 -3 -7 -14 -4 -23 6 -26 13 -6 13 8 0 17
-4 20 -9z m780 -5 c-7 -19 -42 -26 -84 -17 l-35 8 35 11 c53 16 90 15 84 -2z
m1226 10 c0 -2 -9 -6 -20 -9 -11 -3 -18 -1 -14 4 5 9 34 13 34 5z m535 -6 c3
-5 2 -10 -4 -10 -5 0 -13 5 -16 10 -3 6 -2 10 4 10 5 0 13 -4 16 -10z m625 0
c0 -5 -4 -10 -10 -10 -5 0 -10 5 -10 10 0 6 5 10 10 10 6 0 10 -4 10 -10z
m2155 0 c-27 -4 -54 -3 -59 1 -6 5 15 8 50 8 l59 -2 -50 -7z m-4445 -10 c0 -5
-7 -10 -15 -10 -8 0 -15 5 -15 10 0 6 7 10 15 10 8 0 15 -4 15 -10z m2375 0
c13 -5 14 -9 5 -9 -8 0 -24 4 -35 9 -13 5 -14 9 -5 9 8 0 24 -4 35 -9z m1653
-15 c4 -4 -22 -4 -57 0 -50 6 -62 5 -56 -5 5 -9 4 -11 -3 -6 -6 4 -21 2 -32
-4 -17 -9 -20 -8 -20 9 0 16 8 20 38 23 44 4 119 -6 130 -17z m-2428 11 c0 -3
-4 -8 -10 -11 -5 -3 -10 -1 -10 4 0 6 5 11 10 11 6 0 10 -2 10 -4z m1230 -7
c0 -12 40 -8 74 6 16 7 16 5 -4 -15 -20 -20 -32 -23 -87 -21 -38 1 -63 -2 -63
-8 0 -6 -7 -8 -16 -4 -15 5 -15 7 -1 15 9 5 14 15 11 23 -5 12 3 15 40 15 27
0 46 -5 46 -11z m890 1 c13 -8 13 -10 -2 -10 -9 0 -20 5 -23 10 -8 13 5 13 25
0z m-2073 -12 c10 -17 13 -38 5 -38 -9 0 -42 32 -42 42 0 13 28 10 37 -4z
m-412 -8 c3 -5 2 -10 -4 -10 -5 0 -13 5 -16 10 -3 6 -2 10 4 10 5 0 13 -4 16
-10z m340 -1 c11 -17 -1 -21 -15 -4 -8 9 -8 15 -2 15 6 0 14 -5 17 -11z m2093
4 c-10 -2 -26 -2 -35 0 -10 3 -2 5 17 5 19 0 27 -2 18 -5z m-563 -12 c36 -8
33 -9 -32 -10 -39 0 -75 4 -78 9 -7 12 53 12 110 1z m-3145 -11 c0 -5 -18 -10
-40 -10 -22 0 -40 5 -40 10 0 6 18 10 40 10 22 0 40 -4 40 -10z m1060 0 c0 -6
-29 -10 -67 -10 -48 0 -64 3 -53 10 20 13 120 13 120 0z m1635 -11 c5 -5 -7
-9 -33 -9 -40 0 -51 8 -35 24 9 8 54 -1 68 -15z m-2402 4 c-7 -2 -19 -2 -25 0
-7 3 -2 5 12 5 14 0 19 -2 13 -5z m515 0 c-10 -2 -26 -2 -35 0 -10 3 -2 5 17
5 19 0 27 -2 18 -5z m-613 -13 c3 -6 -1 -7 -9 -4 -18 7 -21 14 -7 14 6 0 13
-4 16 -10z m3660 0 c-11 -5 -29 -9 -40 -9 -17 -1 -17 1 -5 9 8 5 26 9 40 9 23
0 23 -1 5 -9z m-3568 -16 c-3 -3 -12 -4 -19 -1 -8 3 -5 6 6 6 11 1 17 -2 13
-5z m149 -2 c-3 -3 0 -12 7 -20 10 -13 9 -14 -10 -4 -12 7 -33 12 -48 12 -40
0 -21 16 20 17 20 1 34 -1 31 -5z m41 2 c-3 -3 -12 -4 -19 -1 -8 3 -5 6 6 6
11 1 17 -2 13 -5z m2400 0 c-3 -3 -12 -4 -19 -1 -8 3 -5 6 6 6 11 1 17 -2 13
-5z m279 -9 c17 -17 70 -20 79 -5 4 7 14 6 28 -2 20 -11 18 -13 -28 -20 -27
-4 -55 -14 -61 -23 -10 -13 -17 -14 -33 -5 -24 12 -28 25 -6 16 10 -4 15 1 15
14 0 25 6 25 -75 -5 -62 -24 -66 -24 -60 -6 5 16 -2 22 -37 34 l-43 15 103 1
c79 1 107 -2 118 -14z m67 8 c-7 -2 -19 -2 -25 0 -7 3 -2 5 12 5 14 0 19 -2
13 -5z m-3293 -25 c10 -6 -9 -7 -50 -3 -36 4 -69 11 -75 16 -12 12 104 0 125
-13z m630 12 c11 -7 9 -11 -13 -19 -33 -13 -77 -14 -77 -3 0 28 58 42 90 22z
m397 4 c-3 -3 -12 -4 -19 -1 -8 3 -5 6 6 6 11 1 17 -2 13 -5z m-1399 -11 c-10
-2 -26 -2 -35 0 -10 3 -2 5 17 5 19 0 27 -2 18 -5z m2249 1 c-3 -3 -12 -4 -19
-1 -8 3 -5 6 6 6 11 1 17 -2 13 -5z m229 -19 c-1 -32 -9 -32 -30 0 -16 24 -16
25 8 25 19 0 24 -5 22 -25z m1581 0 c-10 -20 -19 -25 -50 -25 -23 0 -36 4 -32
10 3 6 14 10 23 10 15 1 15 2 1 10 -8 5 -32 5 -55 0 -58 -12 -170 -23 -163
-16 11 12 151 34 221 35 l66 1 -11 -25z m162 8 c-13 -15 -11 -16 16 -10 17 3
39 8 50 11 11 4 7 0 -10 -8 -19 -10 -57 -15 -105 -14 -43 1 -57 3 -33 5 23 2
47 11 53 19 7 7 19 14 27 14 13 0 13 -2 2 -17z m701 7 c0 -5 -7 -10 -16 -10
-8 0 -12 5 -9 10 3 6 10 10 16 10 5 0 9 -4 9 -10z m-3875 -10 c3 -5 2 -10 -4
-10 -5 0 -13 5 -16 10 -3 6 -2 10 4 10 5 0 13 -4 16 -10z m1285 0 c0 -5 -4
-10 -10 -10 -5 0 -10 5 -10 10 0 6 5 10 10 10 6 0 10 -4 10 -10z m2125 -12
c15 -6 11 -7 -14 -3 -18 3 -40 5 -47 5 -8 0 -14 5 -14 10 0 11 38 5 75 -12z
m-3157 -5 c-15 -2 -42 -2 -60 0 -18 2 -6 4 27 4 33 0 48 -2 33 -4z m3357 -13
c-3 -5 -15 -10 -26 -10 -10 0 -19 5 -19 10 0 6 12 10 26 10 14 0 23 -4 19 -10z
m-3757 -7 c-16 -2 -40 -2 -55 0 -16 2 -3 4 27 4 30 0 43 -2 28 -4z m1315 0
c-7 -2 -19 -2 -25 0 -7 3 -2 5 12 5 14 0 19 -2 13 -5z m1432 -11 c-3 -3 -11 0
-18 7 -9 10 -8 11 6 5 10 -3 15 -9 12 -12z m940 8 c-3 -5 -11 -10 -16 -10 -6
0 -7 5 -4 10 3 6 11 10 16 10 6 0 7 -4 4 -10z m-3856 -16 c2 -2 -27 -4 -65 -3
-48 0 -63 3 -49 9 18 8 104 3 114 -6z m3001 6 c13 -8 13 -10 -2 -10 -9 0 -20
5 -23 10 -8 13 5 13 25 0z m-1775 -10 c3 -6 -5 -10 -19 -10 -14 0 -28 5 -31
10 -3 6 5 10 19 10 14 0 28 -4 31 -10z m1830 0 c3 -5 -1 -10 -10 -10 -9 0 -13
5 -10 10 3 6 8 10 10 10 2 0 7 -4 10 -10z m80 0 c4 -6 -7 -10 -27 -10 -25 0
-29 3 -18 10 19 13 37 13 45 0z m-2604 -9 c-17 -11 3 -25 24 -18 7 3 16 -1 19
-10 5 -12 1 -14 -16 -9 -102 29 -125 33 -153 25 -28 -8 -29 -7 -11 6 13 10 43
15 85 15 41 0 61 -4 52 -9z m2774 -12 c10 -10 10 -10 -85 -12 -52 -2 -65 1
-68 14 -3 14 7 16 70 12 40 -3 77 -9 83 -14z m50 1 c10 -11 14 -20 9 -20 -12
1 -44 25 -44 34 0 12 17 6 35 -14z m183 13 c-10 -2 -28 -2 -40 0 -13 2 -5 4
17 4 22 1 32 -1 23 -4z m-2828 -14 c0 -7 9 -9 22 -6 12 4 71 1 132 -6 61 -6
101 -13 88 -15 -16 -2 -22 -8 -18 -18 4 -10 -2 -14 -22 -13 -24 0 -25 1 -7 9
30 12 6 18 -107 25 -55 4 -98 11 -98 17 0 6 -7 7 -16 4 -8 -3 -12 -2 -9 4 8
14 35 13 35 -1z m2048 -28 c-16 -5 -29 22 -15 31 7 4 15 0 18 -10 4 -9 2 -19
-3 -21z m646 23 c3 -8 2 -12 -4 -9 -6 3 -10 10 -10 16 0 14 7 11 14 -7z
m-2971 -31 c-13 -2 -35 -2 -50 0 -16 2 -5 4 22 4 28 0 40 -2 28 -4z m105 -3
c6 0 12 -4 12 -10 0 -11 -30 -13 -54 -4 -25 9 -19 27 7 20 12 -3 28 -6 35 -6z
m737 -10 c8 -13 -5 -13 -25 0 -13 8 -13 10 2 10 9 0 20 -4 23 -10z m204 -10
c11 -7 -4 -8 -49 -4 -36 4 -69 11 -75 16 -13 13 101 2 124 -12z m2168 14 c-3
-3 -12 -4 -19 -1 -8 3 -5 6 6 6 11 1 17 -2 13 -5z m-3757 -8 c0 -3 -4 -8 -10
-11 -5 -3 -10 -1 -10 4 0 6 5 11 10 11 6 0 10 -2 10 -4z m1295 -6 c-3 -5 -22
-10 -41 -10 -21 0 -33 -4 -29 -10 3 -5 17 -10 31 -10 27 0 34 -20 7 -21 -14 0
-13 -2 5 -9 13 -6 42 -6 73 0 65 13 65 12 51 -2 -18 -18 -15 -27 8 -21 11 3
20 1 20 -4 0 -23 -206 -30 -235 -9 -32 23 -136 1 -119 -25 3 -5 -4 -9 -15 -9
-10 0 -28 -3 -38 -7 -17 -6 -17 -5 2 16 16 19 17 24 5 32 -8 5 -35 7 -60 5
-25 -3 -59 -6 -76 -8 -17 -2 -37 2 -43 9 -9 10 -6 13 14 13 26 0 34 14 13 24
-7 3 1 3 17 0 57 -12 225 -16 225 -6 0 14 -51 22 -71 11 -16 -8 -29 -3 -29 13
0 4 3 7 8 7 35 -6 172 3 167 10 -3 6 16 12 42 14 27 2 54 4 61 5 7 1 10 -2 7
-8z m2525 0 c-19 -13 -30 -13 -30 0 0 6 10 10 23 10 18 0 19 -2 7 -10z m-2462
-27 c-10 -2 -28 -2 -40 0 -13 2 -5 4 17 4 22 1 32 -1 23 -4z m135 0 c-7 -2
-21 -2 -30 0 -10 3 -4 5 12 5 17 0 24 -2 18 -5z m-893 -23 c0 -5 -2 -10 -4
-10 -3 0 -8 5 -11 10 -3 6 -1 10 4 10 6 0 11 -4 11 -10z m90 0 c12 -8 9 -10
-12 -10 -15 0 -30 5 -33 10 -8 13 25 13 45 0z m-535 -10 c-3 -5 -10 -10 -16
-10 -5 0 -9 5 -9 10 0 6 7 10 16 10 8 0 12 -4 9 -10z m600 0 c3 -5 1 -10 -4
-10 -6 0 -11 5 -11 10 0 6 2 10 4 10 3 0 8 -4 11 -10z m735 0 c0 -12 -24 -12
-60 0 -21 7 -19 8 18 9 23 1 42 -3 42 -9z"/>
<path d="M5660 15 c-11 -13 -5 -15 44 -15 32 0 55 4 52 9 -4 5 0 12 6 14 7 3
-10 6 -38 6 -34 1 -56 -4 -64 -14z"/>
</g>
</svg>
