<svg width="23" height="33" viewBox="0 0 23 33" fill="none" xmlns="http://www.w3.org/2000/svg">
<path d="M12.8587 0.103123C12.7544 0.381561 12.3966 1.38703 11.3147 4.44726C6.08009 19.2612 4.94287 22.4529 4.65111 23.1567L4.5787 23.332H4.44454C4.37213 23.332 4.18259 23.314 4.025 23.2934C3.59269 23.2366 3.52667 23.2392 3.47343 23.3217C3.3925 23.4455 3.41167 23.4764 3.60546 23.5512C3.74176 23.6053 4.05269 23.693 4.10167 23.693C4.12509 23.693 4.1038 23.8219 4.04843 24.0255C3.95898 24.3478 3.72046 25.0104 3.31157 26.0777C3.11565 26.5882 2.91333 27.1219 2.86222 27.2637L2.77065 27.5215L2.62796 27.5421C2.53 27.5576 2.47037 27.555 2.43843 27.5344C2.38306 27.4983 2.29148 27.537 2.25954 27.6091C2.24676 27.6375 2.23611 27.72 2.23611 27.7922C2.23611 27.8747 2.22546 27.9262 2.21056 27.9314C2.13602 27.9572 1.70583 28.05 1.65898 28.05C1.61426 28.05 1.58231 27.9855 1.36296 27.4648C0.832685 26.1989 0.724074 25.9617 0.672963 25.9617C0.636759 25.9617 0.532407 26.088 0.532407 26.1319C0.532407 26.1525 0.551574 26.168 0.575 26.168C0.598426 26.168 0.617593 26.1731 0.617593 26.1809C0.617593 26.186 0.553704 26.3639 0.477037 26.5702C0.223611 27.2585 0 27.9675 0 28.0912C0 28.1196 0.0319444 28.1273 0.140556 28.1273H0.281111L0.481296 27.9237C0.702778 27.6994 0.949815 27.4931 1.04565 27.4493C1.12231 27.4132 1.13509 27.4261 1.27778 27.7148C1.37361 27.9108 1.38426 27.9495 1.38426 28.0861C1.38426 28.1995 1.39491 28.2537 1.42472 28.2923C1.44602 28.3233 1.48009 28.4109 1.50139 28.4883C1.60787 28.8956 1.90389 29.749 2.00824 29.9501C2.03593 30.0042 2.06574 30.0635 2.07639 30.0841C2.0913 30.1151 2.07 30.1177 1.94861 30.1048C1.86981 30.0945 1.78889 30.097 1.76972 30.1099C1.73352 30.1331 1.48009 30.0841 1.50139 30.0558C1.50778 30.048 1.46731 30.0455 1.41194 30.048C1.35657 30.0532 1.23731 30.0584 1.14787 30.0584C1.00519 30.0609 0.97963 30.0687 0.926389 30.128C0.86463 30.1976 0.826296 30.1924 0.875278 30.1202C0.902963 30.0816 0.900833 30.079 0.8625 30.0996C0.813519 30.1228 0.783704 30.1228 0.681481 30.0996C0.615463 30.0841 0.604815 30.0919 0.581389 30.1486C0.562222 30.2053 0.562222 30.2156 0.592037 30.2182C0.615463 30.2182 0.617593 30.2234 0.602685 30.2337C0.587778 30.2388 0.575 30.262 0.575 30.2827C0.575 30.3033 0.551574 30.3187 0.5175 30.3213C0.483426 30.3213 0.438704 30.3316 0.417407 30.342C0.379074 30.36 0.379074 30.3626 0.413148 30.378C0.432315 30.3884 0.442963 30.4064 0.436574 30.4219C0.415278 30.4631 0.46213 30.4528 0.547315 30.3961C0.592037 30.3677 0.664444 30.3445 0.707037 30.3445C0.785833 30.3445 0.813519 30.378 0.762407 30.4064C0.7475 30.4141 0.777315 30.4167 0.828426 30.409C0.954074 30.3884 0.964722 30.378 0.913611 30.3162C0.883796 30.2801 0.856111 30.2698 0.813519 30.2827C0.758148 30.2955 0.758148 30.2955 0.796481 30.2569C0.819907 30.2337 0.871019 30.2156 0.909352 30.2156C0.956204 30.2156 0.97963 30.2027 0.97963 30.1795C0.97963 30.0893 1.02222 30.1202 1.035 30.2182L1.04991 30.3239L1.15852 30.311C1.24157 30.3007 1.27778 30.3084 1.30759 30.342C1.33741 30.3729 1.39065 30.3832 1.54398 30.3832C1.66324 30.3832 1.75269 30.3961 1.77185 30.4141C1.78889 30.4322 1.86343 30.4477 1.94009 30.4502C2.01463 30.4528 2.1488 30.476 2.23611 30.5044C2.33194 30.5353 2.42139 30.5482 2.46611 30.5379C2.54704 30.5198 2.54704 30.4709 2.46824 30.4451C2.44056 30.4348 2.52574 30.4322 2.65778 30.4373C2.78769 30.4425 2.92185 30.4348 2.95167 30.4219C3.00278 30.3961 3.12417 30.4141 3.10074 30.4399C3.09435 30.4477 2.97722 30.4631 2.84093 30.4734C2.69824 30.4863 2.58324 30.5095 2.56833 30.525C2.5513 30.5508 2.57898 30.5534 2.69398 30.5405C3.06028 30.4966 3.16889 30.4941 3.20722 30.5198C3.2413 30.5456 3.23491 30.5482 3.1625 30.5508C3.07093 30.5534 2.92185 30.5869 2.90269 30.6127C2.87074 30.6487 2.92398 30.6539 3.10926 30.6281C3.2775 30.6049 3.32435 30.6075 3.40954 30.641C3.46704 30.6642 3.5288 30.6797 3.55009 30.6745C3.57139 30.672 3.59907 30.6771 3.61185 30.6874C3.62463 30.6952 3.65231 30.6823 3.67361 30.6539C3.7162 30.5972 3.8312 30.5843 3.87167 30.6333C3.8887 30.6539 3.90361 30.6539 3.92704 30.6307C3.94407 30.6127 3.95898 30.6101 3.96537 30.6255C3.97389 30.6591 4.20389 30.7312 4.29972 30.7312H4.37213L4.32315 30.7957C4.29333 30.8344 4.28056 30.8679 4.29333 30.8808C4.30398 30.8911 4.40194 30.8963 4.51056 30.8911C4.6788 30.8834 4.70435 30.8756 4.68306 30.8447C4.66389 30.8163 4.66815 30.8086 4.71287 30.8086C4.74269 30.8086 4.78315 30.8266 4.80019 30.8498C4.81935 30.8705 4.83426 30.8808 4.83426 30.8705C4.83426 30.8576 4.84704 30.8653 4.85982 30.8808C4.88111 30.9066 4.88111 30.9195 4.85556 30.9375C4.82787 30.9581 4.83 30.9633 4.86194 30.9633C4.91944 30.9633 4.98546 30.9117 4.97056 30.8808C4.95991 30.8602 4.97481 30.8576 5.01954 30.8679C5.05574 30.8756 5.09407 30.8705 5.10685 30.855C5.1388 30.8163 5.49444 30.7931 5.49444 30.8292C5.49444 30.8627 5.43694 30.8834 5.30278 30.8911C5.23463 30.8963 5.20907 30.9091 5.21333 30.9349C5.21546 30.953 5.20907 30.9813 5.19843 30.9994C5.18139 31.0226 5.24741 31.0303 5.46676 31.0355C5.62648 31.038 5.76278 31.0458 5.76704 31.0509C5.7713 31.0587 5.77982 31.1102 5.7862 31.1695L5.79898 31.2752L5.71593 31.2598C5.6712 31.2495 5.57963 31.2262 5.51361 31.2056C5.31982 31.1489 5.17074 31.167 5.26444 31.2366C5.30278 31.2649 5.82241 31.3191 5.83519 31.2959C5.85222 31.2675 6.09074 31.234 6.09074 31.2598C6.09074 31.2727 6.07583 31.3036 6.05454 31.3294C6.01407 31.3861 6.0375 31.3887 6.15463 31.3474C6.20787 31.3268 6.2462 31.3268 6.27176 31.3448C6.30157 31.3629 6.33778 31.3526 6.42083 31.301C6.52732 31.234 6.53157 31.2314 6.79352 31.2546C6.94046 31.2649 7.06185 31.2804 7.06824 31.2855C7.0725 31.2933 7.06398 31.3165 7.04694 31.3397C7.02352 31.3758 7.02352 31.3861 7.05972 31.417C7.08102 31.4377 7.11722 31.4531 7.13852 31.4531C7.15982 31.4531 7.19602 31.4763 7.21732 31.5021C7.25778 31.5511 7.25778 31.5511 7.21306 31.5666C7.1875 31.5743 7.13852 31.564 7.10444 31.5434C7.07037 31.5227 7.03843 31.5098 7.03204 31.5176C7.00222 31.5511 7.06398 31.6104 7.22796 31.7006C7.36 31.7702 7.40898 31.8089 7.40046 31.8373C7.39194 31.8656 7.39407 31.8682 7.42176 31.8398C7.44306 31.8166 7.4963 31.8115 7.59639 31.8218C8.10537 31.8759 8.31407 31.8837 8.44398 31.8553C8.51 31.8398 8.52065 31.8424 8.49083 31.8656C8.47167 31.8811 8.35241 31.9172 8.22463 31.9455C8.09898 31.9739 7.99037 32.0074 7.97972 32.0177C7.9712 32.028 8.12028 32.059 8.30982 32.0848C8.65056 32.1312 8.65695 32.1312 8.72509 32.2137C8.79111 32.2936 8.80176 32.2987 8.92315 32.2884C9.09139 32.2755 9.17019 32.2291 9.02537 32.2266C8.90398 32.2266 8.88907 32.1827 9.00407 32.1698L9.08287 32.1595L9.00833 32.1312C8.95083 32.108 8.94444 32.1028 8.98278 32.1002C9.01046 32.0977 9.0275 32.0873 9.01898 32.0719C9.01259 32.059 9.03389 32.0306 9.06583 32.01C9.09778 31.9894 9.11269 31.9713 9.09991 31.9688C9.085 31.9688 9.07222 31.9584 9.07222 31.9455C9.07222 31.8991 9.15741 31.8862 9.23833 31.9198L9.31713 31.9507L9.24259 31.9765L9.16806 31.9997L9.23833 32.0745C9.29157 32.1337 9.29796 32.1492 9.27028 32.1518C9.24685 32.1518 9.26176 32.1698 9.30648 32.193C9.36398 32.2214 9.38954 32.224 9.41935 32.2034C9.46833 32.1647 9.61954 32.193 9.58546 32.2343C9.57056 32.2523 9.49176 32.2627 9.39806 32.2601C9.24685 32.2549 9.23833 32.2575 9.27241 32.2987C9.30648 32.3426 9.43 32.3555 9.79204 32.3555C9.90491 32.3555 10.1328 32.4509 10.0774 32.4766C10.0625 32.4844 10.0263 32.4715 9.99861 32.4483C9.93898 32.3993 9.84954 32.3916 9.87296 32.4354C9.88361 32.456 9.8687 32.4612 9.82611 32.4509C9.78778 32.4431 9.75157 32.4509 9.73028 32.4741C9.71324 32.4921 9.64509 32.5179 9.5812 32.5308L9.4662 32.554L9.54926 32.5746C9.63657 32.5952 9.93046 32.5772 9.99861 32.5462C10.0263 32.5334 10.0327 32.5359 10.022 32.5566C9.99861 32.603 10.1839 32.5952 10.2861 32.5462C10.3841 32.4973 10.4139 32.5153 10.4714 32.6468C10.5012 32.719 10.5076 32.7216 10.6205 32.7112C10.6844 32.7035 10.744 32.688 10.7504 32.6726C10.7589 32.6597 10.8079 32.6365 10.8611 32.6236L10.9569 32.5978L10.7972 32.5772C10.6077 32.5514 10.5992 32.5462 10.6269 32.4818C10.6439 32.4431 10.6716 32.4328 10.7504 32.4354C10.827 32.438 10.8377 32.4431 10.7972 32.456L10.744 32.4741L10.8079 32.4895C10.8781 32.5076 10.9868 32.4895 11.023 32.456C11.0421 32.4354 11.1124 32.4534 11.3254 32.5256C11.3637 32.5385 11.368 32.5488 11.3488 32.5772C11.319 32.621 11.2317 32.6236 11.138 32.5849C11.0826 32.5617 11.0656 32.5617 11.0506 32.5901C11.0166 32.6571 11.0315 32.67 11.1167 32.652C11.1699 32.6416 11.2019 32.6442 11.2019 32.6597C11.2019 32.6752 11.1891 32.6906 11.1763 32.6984C11.1614 32.7035 11.2487 32.7035 11.3701 32.6958C11.5341 32.6855 11.5873 32.6906 11.5767 32.7112C11.5681 32.7293 11.5213 32.7422 11.4723 32.7448C11.402 32.7448 11.3914 32.7499 11.4255 32.768C11.4489 32.7809 11.6576 32.7912 11.8876 32.7912C12.124 32.7937 12.3114 32.8041 12.3199 32.817C12.3263 32.8324 12.3007 32.835 12.256 32.8273C12.207 32.817 12.1815 32.8221 12.1815 32.8427C12.1815 32.8582 12.2049 32.8711 12.2305 32.8711C12.2581 32.8711 12.288 32.8788 12.2965 32.8917C12.3114 32.9098 12.437 32.9175 12.7288 32.9175C12.8736 32.9201 12.929 32.9407 12.8821 32.9768C12.8651 32.9897 12.9545 33 13.1036 33C13.2548 33 13.3528 32.9897 13.3528 32.9742C13.3528 32.9587 13.3017 32.9484 13.242 32.9484C13.1079 32.9484 13.0291 32.9252 13.0461 32.8943C13.0525 32.8814 13.0014 32.8685 12.9332 32.8685L12.8097 32.8634L12.9588 32.8402C13.061 32.8221 13.1185 32.8221 13.1441 32.8427C13.1632 32.8582 13.2101 32.8634 13.2463 32.8556C13.2804 32.8453 13.34 32.853 13.3741 32.8711C13.4358 32.902 13.438 32.9072 13.4039 32.951C13.3698 32.9974 13.3719 33 13.455 33C13.5444 33 13.5764 32.9639 13.5082 32.9407C13.4763 32.9304 13.4763 32.9252 13.5189 32.9098C13.57 32.8891 13.5764 32.8556 13.5444 32.7577C13.5317 32.7138 13.5317 32.6906 13.5466 32.6906C13.5594 32.6906 13.5594 32.6752 13.5466 32.6416C13.5168 32.5772 13.5359 32.5617 13.6381 32.5617C13.734 32.5617 13.7979 32.5282 13.7595 32.4998C13.7468 32.4895 13.7276 32.4895 13.7148 32.4973C13.7042 32.505 13.6935 32.4947 13.6935 32.4741C13.6935 32.4534 13.6765 32.4251 13.6573 32.4096C13.6254 32.389 13.6275 32.3838 13.6786 32.3684C13.7106 32.358 13.7894 32.358 13.8554 32.3684C13.9597 32.3838 13.9704 32.389 13.9448 32.4251C13.9193 32.4638 13.9299 32.4663 14.0556 32.4509C14.2025 32.4302 14.4602 32.34 14.4602 32.3039C14.4602 32.273 14.4006 32.2523 14.309 32.2523C14.26 32.2523 14.2281 32.242 14.2366 32.2266C14.243 32.2137 14.277 32.2085 14.309 32.2162C14.3431 32.224 14.375 32.2214 14.3835 32.2059C14.4048 32.1621 14.2983 32.0512 14.2153 32.0306C14.162 32.0203 14.1407 32.0023 14.1493 31.9791C14.1578 31.9533 14.1471 31.9455 14.1131 31.9533C14.0875 31.961 14.047 31.9662 14.0257 31.9662C13.9874 31.9688 13.9853 31.9713 14.0236 32.0203C14.0449 32.0487 14.0556 32.0796 14.047 32.0899C14.0385 32.1002 14.0236 32.0951 14.0151 32.077C14.0066 32.059 13.9342 32.0384 13.8511 32.0306C13.6488 32.0126 13.6147 32.0023 13.5998 31.9533C13.5806 31.894 13.5998 31.8759 13.6381 31.9146C13.6637 31.9404 13.6786 31.9352 13.7106 31.8966C13.734 31.8682 13.7489 31.8373 13.7425 31.8321C13.7212 31.8063 13.8618 31.7909 14.0918 31.796C14.2579 31.7986 14.3345 31.8089 14.3409 31.8321C14.3494 31.8553 14.3707 31.8553 14.4197 31.8398C14.4964 31.8115 14.8797 31.8579 14.9244 31.8991C14.9394 31.9146 14.9777 31.9275 15.0096 31.9301C15.2844 31.9559 15.3972 31.9791 15.3972 32.01C15.3972 32.0384 15.4356 32.0461 15.5484 32.0461C15.6421 32.0461 15.6932 32.0564 15.6847 32.0719C15.6783 32.0848 15.6379 32.0977 15.5974 32.0977C15.5484 32.0977 15.5271 32.108 15.5378 32.126C15.5463 32.1441 15.5804 32.1466 15.6251 32.1363C15.6826 32.1234 15.706 32.1312 15.7252 32.1647C15.7571 32.2162 15.8019 32.193 15.8019 32.1209C15.8019 32.077 15.8082 32.0745 15.8508 32.1002C15.9722 32.1776 15.9765 32.1802 15.9999 32.1389C16.0191 32.108 16.0468 32.1028 16.1043 32.1131C16.149 32.1234 16.1788 32.1389 16.1724 32.1518C16.1681 32.1647 16.1319 32.1673 16.0936 32.157C16.0382 32.1441 16.0297 32.1492 16.0531 32.1776C16.0659 32.1956 16.0787 32.2214 16.0787 32.2317C16.0787 32.2627 15.9126 32.2575 15.8636 32.2266C15.7678 32.1621 15.8615 32.3503 15.9935 32.4844C16.0979 32.5901 16.1319 32.652 16.0702 32.6236C16.0446 32.6107 15.9935 32.6803 15.9935 32.7241C15.9935 32.7654 16.1128 32.7602 16.2065 32.7164C16.2661 32.688 16.3406 32.6648 16.3726 32.6648C16.4173 32.6648 16.4237 32.6597 16.3981 32.6391C16.3811 32.6262 16.33 32.6133 16.2874 32.6133C16.2256 32.6133 16.2065 32.603 16.2065 32.5669C16.2044 32.5256 16.2044 32.5256 16.1767 32.5695C16.149 32.6107 16.1447 32.6107 16.1128 32.5488C16.0894 32.5076 16.083 32.4612 16.0915 32.4277C16.1043 32.3787 16.0979 32.3735 16.0276 32.389C15.9616 32.4019 15.9488 32.3967 15.9552 32.3606C15.9637 32.2987 16.1213 32.2833 16.1469 32.34C16.1575 32.3632 16.1831 32.3812 16.2044 32.3812C16.2619 32.3812 16.2746 32.4096 16.232 32.4483C16.2001 32.4792 16.2065 32.4818 16.281 32.4844C16.3279 32.4844 16.3875 32.4766 16.4131 32.4689C16.4578 32.4534 16.4578 32.4509 16.4237 32.3864L16.3896 32.322L16.4791 32.3374C16.5557 32.3477 16.5664 32.3452 16.5451 32.3142C16.5323 32.2936 16.4833 32.2781 16.4344 32.2781C16.347 32.2781 16.3385 32.2472 16.4258 32.2369C16.4663 32.2317 16.6026 32.273 16.6324 32.2987C16.6367 32.3039 16.6281 32.3168 16.6132 32.3271C16.5962 32.3426 16.6196 32.3555 16.6856 32.3658C16.7581 32.3812 16.7815 32.3941 16.773 32.4225C16.7581 32.4689 16.839 32.523 16.8731 32.4895C16.888 32.4741 16.9795 32.4534 17.0796 32.4431C17.2649 32.4225 17.3011 32.4225 17.3565 32.4509C17.3927 32.4689 17.7824 32.4612 17.8058 32.4431C17.8144 32.438 17.8633 32.4405 17.9144 32.4483L18.0039 32.4663L17.9208 32.5024C17.874 32.523 17.8144 32.5308 17.7888 32.523C17.7632 32.5153 17.7356 32.523 17.7292 32.5385C17.7206 32.5514 17.6908 32.5746 17.6631 32.5875C17.5694 32.6313 17.6056 32.67 17.7356 32.6623C17.8527 32.6545 17.8569 32.6571 17.8484 32.719C17.842 32.7783 17.8442 32.7783 17.8825 32.7345C17.9102 32.7061 17.9592 32.6906 18.0231 32.6906C18.0784 32.6906 18.1231 32.6777 18.1231 32.6623C18.1231 32.6494 18.1317 32.6416 18.1402 32.6494C18.1487 32.6571 18.2296 32.6468 18.3148 32.6287C18.4511 32.603 18.4681 32.5927 18.4319 32.5695C18.3915 32.5411 18.3915 32.5385 18.4511 32.4638C18.5086 32.389 18.5107 32.3864 18.4681 32.358C18.4447 32.3426 18.3936 32.3374 18.3531 32.3426C18.2871 32.3555 18.285 32.3555 18.3361 32.3271L18.3894 32.2987L18.3361 32.2781C18.3063 32.2652 18.2552 32.2498 18.2211 32.2395C18.0933 32.2059 18.187 32.2034 18.3595 32.2369C18.4596 32.2575 18.5406 32.2627 18.5448 32.2498C18.5491 32.2369 18.5597 32.2317 18.5704 32.2395C18.581 32.2472 18.5789 32.291 18.5682 32.3348C18.5576 32.3787 18.5512 32.4199 18.5555 32.4225C18.5704 32.438 18.9367 32.4844 19.041 32.4844C19.1667 32.4844 19.2817 32.4431 19.2604 32.4045C19.254 32.3916 19.2242 32.3812 19.1922 32.3812C19.1518 32.3812 19.1432 32.389 19.1645 32.4045C19.2114 32.4405 19.073 32.4663 18.9345 32.4457C18.7855 32.4225 18.6705 32.3684 18.6832 32.3245C18.6875 32.3065 18.7109 32.2936 18.7322 32.2987C18.7535 32.3013 18.8685 32.2962 18.9835 32.2884C19.1411 32.2755 19.1858 32.2652 19.156 32.2472C19.1369 32.2317 19.0751 32.2266 19.0197 32.2369C18.9281 32.2498 18.8621 32.2317 18.8685 32.1905C18.8685 32.1802 18.8515 32.1466 18.8302 32.1105L18.7897 32.0512L18.7003 32.1002C18.6002 32.1544 18.5619 32.1621 18.5789 32.126C18.5874 32.1131 18.5619 32.0925 18.5235 32.0848C18.4596 32.0667 18.4575 32.0641 18.4958 32.0306C18.5171 32.01 18.5789 31.9945 18.6321 31.9945C18.7876 31.992 18.9154 31.9533 18.9516 31.8966C18.9856 31.845 19.1667 31.8012 19.1667 31.845C19.1667 31.8579 19.156 31.8656 19.1454 31.8656C19.1326 31.8656 19.1262 31.8811 19.1283 31.8966C19.1326 31.9172 19.107 31.9327 19.0708 31.9378C18.9856 31.9507 18.9473 31.9945 19.0219 31.9945C19.0538 31.9945 19.0857 32.0074 19.0921 32.0203C19.0985 32.0358 19.1262 32.0461 19.1539 32.0461C19.1794 32.0461 19.2199 32.0641 19.2433 32.0848C19.2795 32.1183 19.2646 32.1209 19.0921 32.1234C18.9601 32.1234 18.909 32.1312 18.9239 32.1492C18.9367 32.1647 18.9856 32.1776 19.0304 32.175C19.0751 32.175 19.1369 32.175 19.1667 32.175C19.2263 32.175 19.3967 32.175 19.4968 32.1724C19.5628 32.1724 19.7182 32.0977 19.7204 32.0667C19.7204 32.059 19.6842 32.0409 19.6416 32.0255L19.5606 31.9997L19.6629 31.9971C19.7374 31.9945 19.763 31.9842 19.763 31.9559C19.763 31.9327 19.7502 31.9095 19.7374 31.9043C19.7055 31.8888 19.6906 31.7367 19.7204 31.7367C19.7331 31.7367 19.7417 31.747 19.7417 31.7625C19.7417 31.8037 20.1527 31.796 20.2017 31.7522C20.24 31.7161 20.24 31.7135 20.2059 31.698C20.1846 31.6877 20.1676 31.6645 20.1676 31.6465C20.1676 31.6078 20.2315 31.5846 20.338 31.5795L20.4125 31.5769L20.3444 31.5537C20.306 31.5408 20.2741 31.5253 20.2741 31.5227C20.2741 31.5176 20.3316 31.515 20.4019 31.515C20.4721 31.5176 20.5296 31.5253 20.5296 31.5356C20.5296 31.5485 20.5105 31.5562 20.487 31.5562C20.4636 31.5562 20.4444 31.5666 20.4444 31.5795C20.4444 31.5898 20.5019 31.6078 20.5701 31.6155C20.6404 31.6259 20.7383 31.6387 20.7894 31.6465C20.8555 31.6568 20.8704 31.6542 20.8384 31.6362C20.815 31.6233 20.8086 31.6104 20.8235 31.6104C20.8427 31.6078 20.8469 31.5898 20.8384 31.5537C20.8235 31.4995 20.8278 31.4995 20.9811 31.515C21.0855 31.5279 21.1579 31.5227 21.2005 31.5021L21.2644 31.4712L21.1728 31.4377C21.0812 31.4041 21.0514 31.4067 20.9598 31.4609C20.9257 31.4815 20.8597 31.4789 20.7234 31.4583C20.6212 31.4402 20.4977 31.4248 20.453 31.4248L20.3699 31.4222L20.4551 31.399C20.5019 31.3887 20.5722 31.3861 20.6106 31.3938C20.6531 31.4016 20.6787 31.3964 20.6787 31.3784C20.6787 31.3629 20.6574 31.35 20.6319 31.35C20.5573 31.35 20.5126 31.3087 20.5445 31.2701C20.5637 31.2469 20.5978 31.2469 20.6957 31.2727C20.7894 31.2959 20.8342 31.2959 20.8661 31.2752C20.8895 31.2598 20.9641 31.2469 21.0301 31.2469C21.094 31.2469 21.1834 31.2288 21.226 31.2082C21.324 31.1592 21.488 31.1566 21.488 31.203C21.488 31.2237 21.5093 31.2495 21.5348 31.2649C21.5753 31.2855 21.5497 31.2933 21.4028 31.3113C21.2494 31.3268 21.2303 31.3345 21.275 31.3552C21.3495 31.3938 21.9394 31.4145 22.014 31.3809C22.0481 31.368 22.1205 31.3655 22.1758 31.3758C22.2461 31.3887 22.2823 31.3835 22.2994 31.3603C22.327 31.3216 22.31 31.3087 22.1971 31.2855C22.1354 31.2752 22.1119 31.2572 22.1183 31.234C22.1269 31.2108 22.1034 31.1902 22.0481 31.1721C21.9437 31.136 21.6732 31.1334 21.6903 31.1695C21.6988 31.185 21.6775 31.1953 21.6434 31.1927C21.6115 31.1927 21.5966 31.185 21.6115 31.1773C21.6562 31.1566 21.6392 31.1231 21.571 31.0948C21.4794 31.0561 21.3602 31.0587 21.1621 31.1051C20.9683 31.1489 20.9279 31.1515 20.9428 31.1205C20.9598 31.087 20.8831 31.0664 20.6744 31.0484C20.5722 31.0406 20.4934 31.0252 20.4977 31.0148C20.5019 31.0045 20.5509 30.9813 20.6042 30.9633C20.7064 30.9272 20.7256 30.8988 20.6574 30.8782C20.5765 30.8524 20.6084 30.8009 20.6957 30.8189C20.7383 30.8266 20.7958 30.8344 20.8235 30.8344C20.8491 30.8344 20.8704 30.8498 20.8704 30.8705C20.8704 30.9066 21.0045 30.9272 21.3495 30.9427C21.554 30.953 21.5604 30.9014 21.3666 30.7905C21.2345 30.7158 21.1962 30.7055 20.9449 30.69C20.7937 30.6823 20.6063 30.6694 20.5296 30.6642C20.453 30.6591 20.3316 30.6539 20.2592 30.6539C20.1378 30.6539 20.125 30.6487 20.1122 30.592C20.0867 30.4683 20.142 30.3394 20.2847 30.1898C20.651 29.8083 22.1247 27.8695 22.5719 27.1812C22.6444 27.0703 22.6763 27.042 22.7764 27.0059C22.8424 26.9852 22.9191 26.9543 22.9489 26.9414L23.0021 26.9156L22.9531 26.8099C22.8509 26.5908 22.5805 26.1551 22.5123 26.0984C22.4719 26.0648 22.4101 26.0391 22.3718 26.0391C22.2972 26.0391 22.212 25.9514 22.212 25.8741C22.212 25.8483 22.0119 25.3687 21.7669 24.8067C21.1664 23.4248 19.8758 20.4162 17.1755 14.1023C16.1426 11.6892 15.5931 10.4259 15.2481 9.66797C15.0309 9.19359 15.0118 9.1343 14.8755 8.61094C14.7967 8.30672 14.5837 7.51781 14.4006 6.85781L14.0683 5.65898V5.09695C14.0662 4.46273 14.0769 4.49883 13.8937 4.51687L13.8106 4.52461L13.7957 4.91133C13.7617 5.76727 13.6467 7.37086 13.6083 7.4843C13.5977 7.51523 13.5892 7.52812 13.5892 7.51008C13.5849 7.45078 13.4827 6.35765 13.3443 4.92422C13.2676 4.13789 13.1803 3.20203 13.1505 2.84883C13.1206 2.49305 13.0717 2.01867 13.044 1.7918C13.0163 1.56492 12.9737 1.10086 12.9481 0.760544C12.9247 0.420235 12.9013 0.113438 12.8992 0.077343C12.8928 0.0154686 12.8906 0.0180473 12.8587 0.103123ZM14.2941 6.91453C14.3984 7.28836 14.5241 7.73695 14.5709 7.91484C14.6178 8.09273 14.7243 8.46398 14.8052 8.73984L14.9543 9.24258L14.9415 11.4727C14.933 12.6998 14.9138 16.1494 14.8946 19.14L14.8648 24.5747L14.6838 25.508C14.5837 26.0184 14.4943 26.4619 14.4836 26.4902C14.4708 26.5289 14.4538 26.4748 14.4112 26.2582C14.2749 25.5621 14.2664 25.4538 14.2557 24.1699C14.2494 23.5177 14.2153 19.3462 14.1812 14.9016C14.145 10.4569 14.1109 6.76758 14.1067 6.70312C14.0939 6.50719 14.0854 6.21586 14.0939 6.22617C14.0981 6.23133 14.1897 6.5407 14.2941 6.91453ZM4.87685 24.0668C6.13972 24.2885 9.46833 24.9614 11.5106 25.4074C12.6926 25.6678 12.9098 25.722 12.9503 25.7761C13.0142 25.8586 13.2463 26.5727 13.2463 26.6862C13.2463 26.7506 13.2697 26.7506 11.9259 26.6681C11.204 26.6243 10.2222 26.6295 10.0987 26.6784C10.0093 26.7145 9.78565 26.9723 9.73028 27.1038C9.70685 27.158 9.68982 27.2276 9.69407 27.2585C9.70046 27.3127 9.70472 27.3101 9.775 27.225C9.81546 27.176 9.8687 27.1012 9.89213 27.06L9.93472 26.9878L10.0263 27.078C10.0774 27.1296 10.1541 27.1863 10.1967 27.2018C10.3159 27.2456 11.1124 27.2843 11.8833 27.2817C12.3902 27.2817 12.552 27.2869 12.4903 27.3075C12.3455 27.3513 11.3083 27.3462 10.2584 27.2972C9.86232 27.2791 9.78565 27.2817 9.73241 27.3152C9.65148 27.3668 9.64722 27.3642 9.64722 27.2895C9.64722 27.1812 9.59611 27.0652 9.46833 26.8924C9.40019 26.8022 9.3512 26.7145 9.35759 26.6965C9.36824 26.6578 9.29583 26.5908 9.21065 26.565C9.17657 26.5547 9.15954 26.5341 9.16593 26.516C9.17232 26.4954 9.15102 26.4696 9.11481 26.4541C9.0488 26.4284 9.0488 26.4206 9.11481 26.2015C9.1638 26.0416 9.04028 25.8689 8.78472 25.7426C8.67398 25.6859 8.52917 25.6833 8.48019 25.7374C8.45889 25.7606 8.40991 25.8741 8.37157 25.9875C8.30982 26.1654 8.3013 26.217 8.31194 26.3355C8.32259 26.467 8.32046 26.4748 8.28426 26.4516C8.20972 26.4026 8.19269 26.4206 8.20759 26.5289C8.22037 26.6217 8.21398 26.6398 8.15222 26.7068C8.09898 26.7635 8.07343 26.7764 8.04574 26.7584C7.99037 26.7223 7.78167 26.9053 7.81787 26.9569C7.83065 26.9775 7.85833 26.993 7.87963 26.993C7.92861 26.993 7.94565 27.1012 7.92861 27.3127L7.91583 27.4802L7.80722 27.4957C7.70926 27.5086 6.6338 27.6298 6.48898 27.6452L6.42722 27.6504L6.42935 27.3023C6.43361 26.9259 6.44 26.9543 6.29306 26.712C6.23343 26.6114 6.23343 26.6088 6.2675 26.2582C6.28454 26.0984 6.28667 25.9514 6.27602 25.8715C6.25898 25.7297 6.29944 25.5492 6.35269 25.5492C6.36546 25.5492 6.325 25.508 6.26111 25.459C6.14824 25.3713 6.13972 25.3687 5.99491 25.3842C5.91398 25.3945 5.84157 25.4074 5.83519 25.4177C5.8288 25.4255 5.79685 25.4487 5.76491 25.4667C5.72019 25.4899 5.68398 25.5492 5.62648 25.6987C5.54343 25.9127 5.53278 26.0571 5.57963 26.2685C5.60093 26.3691 5.5988 26.3794 5.51787 26.5083C5.34111 26.797 5.07704 27.3668 5.02593 27.5782C5.0025 27.671 4.98759 27.6891 4.93222 27.702C4.84491 27.7174 4.12722 27.7613 3.77583 27.7716L3.49472 27.7793L3.36269 27.6246C3.28389 27.5318 3.21148 27.4158 3.18167 27.3333C3.15398 27.2611 3.11991 27.1992 3.10713 27.1992C3.09222 27.1992 3.08796 27.1734 3.09861 27.127C3.10926 27.0755 3.89722 24.7139 4.12083 24.072C4.15278 23.9817 4.15704 23.9766 4.255 23.9766C4.31037 23.9766 4.58935 24.0178 4.87685 24.0668ZM16.0361 24.3916C17.2862 24.567 21.6541 25.7606 22.1332 26.0545L22.1907 26.0932L22.1141 26.186L22.0374 26.2788L22.0821 26.333C22.1205 26.3768 22.1332 26.382 22.1694 26.3536C22.2482 26.2943 22.2844 26.3175 22.3845 26.5005L22.4825 26.6784L22.31 26.6939C21.9948 26.7223 14.737 26.8073 14.737 26.7841C14.737 26.779 14.7519 26.7094 14.769 26.632C14.786 26.5547 14.8244 26.3149 14.8542 26.1035C14.9159 25.6652 15.065 24.7216 15.114 24.4587L15.1459 24.2808L15.3206 24.2988C15.4143 24.3066 15.738 24.3504 16.0361 24.3916ZM22.5954 27.0084C22.5954 27.0806 21.7478 28.1273 21.1579 28.7848C21.0045 28.9549 20.6979 29.3004 20.4785 29.553C20.257 29.8057 20.0718 30.0068 20.0675 29.9991C20.0611 29.9939 20.0718 29.8392 20.0909 29.6562C20.1569 28.9807 20.223 27.5421 20.2017 27.2302C20.1931 27.0935 20.1953 27.0445 20.2166 27.042C20.4487 27.011 22.5954 26.9801 22.5954 27.0084ZM0.696389 30.1795C0.69 30.1873 0.670833 30.1898 0.655926 30.1821C0.638889 30.1744 0.645278 30.1666 0.668704 30.1666C0.69213 30.1641 0.704907 30.1718 0.696389 30.1795ZM3.35417 30.1898C3.36056 30.2027 3.35204 30.2156 3.335 30.2156C3.31796 30.2156 3.29667 30.2027 3.29028 30.1898C3.28389 30.1744 3.29241 30.1641 3.30944 30.1641C3.32648 30.1641 3.34778 30.1744 3.35417 30.1898ZM3.57139 30.2569C3.565 30.2646 3.54583 30.2672 3.53093 30.2595C3.51389 30.2517 3.52028 30.244 3.5437 30.244C3.56713 30.2414 3.57991 30.2491 3.57139 30.2569ZM4.79167 30.2775C4.79167 30.2981 4.77676 30.3187 4.75972 30.3291C4.72778 30.342 4.715 30.293 4.74269 30.2595C4.76611 30.2285 4.79167 30.2388 4.79167 30.2775ZM4.3125 30.2904C4.31889 30.3033 4.31463 30.3213 4.30185 30.3316C4.2912 30.3394 4.28056 30.3291 4.28056 30.3084C4.28056 30.262 4.29333 30.2543 4.3125 30.2904ZM4.61491 30.311C4.59574 30.3342 4.57232 30.3445 4.5638 30.3342C4.55528 30.3239 4.56167 30.3059 4.5787 30.293C4.63194 30.2517 4.65324 30.2646 4.61491 30.311ZM4.88324 30.3497C4.85556 30.3806 4.83 30.3987 4.82148 30.3884C4.80019 30.3626 4.85556 30.293 4.89389 30.293C4.92157 30.293 4.91944 30.3033 4.88324 30.3497ZM5.00463 30.3316C4.98972 30.3523 4.97056 30.3703 4.95991 30.3703C4.94926 30.3703 4.94074 30.3523 4.94074 30.3316C4.94074 30.3084 4.95991 30.293 4.98546 30.293C5.0238 30.293 5.02593 30.2981 5.00463 30.3316ZM5.20907 30.4425C5.19204 30.4657 5.16861 30.476 5.16222 30.4657C5.14093 30.4425 5.1963 30.3677 5.22185 30.3858C5.23463 30.3961 5.23037 30.4193 5.20907 30.4425ZM3.35843 30.4116C3.35204 30.4193 3.33287 30.4219 3.31796 30.4141C3.30093 30.4064 3.30731 30.3987 3.33074 30.3987C3.35417 30.3961 3.36694 30.4038 3.35843 30.4116ZM5.79259 30.4219C5.79259 30.4348 5.77769 30.4477 5.76065 30.4477C5.74361 30.4477 5.7287 30.4348 5.7287 30.4219C5.7287 30.4064 5.74361 30.3961 5.76065 30.3961C5.77769 30.3961 5.79259 30.4064 5.79259 30.4219ZM4.20176 30.4657C4.18685 30.4709 4.1613 30.4709 4.14852 30.4657C4.13361 30.458 4.14426 30.4528 4.17407 30.4528C4.20389 30.4528 4.21454 30.458 4.20176 30.4657ZM8.17778 30.4734C8.17778 30.4863 8.17352 30.4992 8.16926 30.4992C8.16287 30.4992 8.15222 30.4863 8.14583 30.4734C8.13944 30.458 8.1437 30.4477 8.15435 30.4477C8.16713 30.4477 8.17778 30.458 8.17778 30.4734ZM3.94407 30.4992C3.91426 30.5147 3.85037 30.5147 3.78435 30.5018L3.67361 30.4786H3.83333C3.95046 30.476 3.98028 30.4837 3.94407 30.4992ZM4.74694 30.5147C4.7512 30.5198 4.72565 30.525 4.68944 30.525C4.65324 30.525 4.61704 30.5147 4.61065 30.4992C4.6 30.476 4.72352 30.4915 4.74694 30.5147ZM8.00102 30.4889C7.99463 30.4966 7.97546 30.4992 7.96056 30.4915C7.94352 30.4837 7.94991 30.476 7.97333 30.476C7.99676 30.4734 8.00954 30.4812 8.00102 30.4889ZM4.92583 30.672C4.91093 30.6771 4.88111 30.6771 4.86194 30.672C4.84065 30.6642 4.85343 30.6591 4.8875 30.6591C4.9237 30.6591 4.93861 30.6642 4.92583 30.672ZM6.68704 30.7312C6.68704 30.7441 6.67852 30.757 6.66574 30.757C6.65509 30.757 6.64444 30.7441 6.64444 30.7312C6.64444 30.7158 6.65509 30.7055 6.66574 30.7055C6.67852 30.7055 6.68704 30.7158 6.68704 30.7312ZM21.0344 30.7725C21.028 30.7802 21.0088 30.7828 20.9939 30.7751C20.9769 30.7673 20.9832 30.7596 21.0067 30.7596C21.0301 30.757 21.0429 30.7648 21.0344 30.7725ZM7.44732 30.7983C7.44093 30.806 7.42176 30.8086 7.40685 30.8009C7.38982 30.7931 7.3962 30.7854 7.41963 30.7854C7.44306 30.7828 7.45583 30.7905 7.44732 30.7983ZM20.4657 30.8576C20.4657 30.8705 20.4913 30.8885 20.5254 30.8937C20.5701 30.9014 20.5637 30.904 20.4998 30.9091C20.4274 30.9117 20.421 30.9169 20.4466 30.953C20.47 30.9891 20.4572 30.9916 20.3145 30.9762C20.2272 30.9659 20.1229 30.9478 20.0824 30.9349C20.027 30.9195 20.0441 30.9169 20.1399 30.9272C20.2528 30.9401 20.2805 30.9349 20.3294 30.8885C20.3869 30.8318 20.4657 30.8163 20.4657 30.8576ZM5.80963 30.8782C5.76491 30.8911 5.75852 30.9272 5.79898 30.9452C5.81602 30.953 5.81176 30.9633 5.7862 30.9762C5.73722 31.002 5.72657 30.9865 5.74361 30.9169C5.75 30.8782 5.7713 30.8602 5.80111 30.8627C5.83732 30.8653 5.83732 30.8679 5.80963 30.8782ZM6.75093 30.8859C6.79778 30.9195 6.76157 30.9452 6.69343 30.9272C6.6487 30.9117 6.64231 30.904 6.66787 30.8834C6.7062 30.855 6.71046 30.855 6.75093 30.8859ZM6.98732 30.8859C7.04056 30.922 7.03843 30.9813 6.98519 31.002C6.91278 31.0303 6.79352 30.9891 6.79352 30.9375C6.79352 30.8627 6.90639 30.8344 6.98732 30.8859ZM6.61889 30.9169C6.60824 30.9581 6.51667 30.9787 6.51667 30.9401C6.51667 30.9195 6.55287 30.8988 6.60824 30.8885C6.61889 30.8885 6.62315 30.9014 6.61889 30.9169ZM5.51574 30.9478C5.51574 30.9555 5.50722 30.9684 5.49444 30.9762C5.4838 30.9839 5.47315 30.9787 5.47315 30.9659C5.47315 30.9504 5.4838 30.9375 5.49444 30.9375C5.50722 30.9375 5.51574 30.9427 5.51574 30.9478ZM20.4444 31.0793C20.5552 31.1128 20.6894 31.1489 20.7426 31.1592C20.8342 31.1773 20.8363 31.1773 20.7809 31.2005C20.7213 31.2262 20.5637 31.1876 20.5403 31.1437C20.5339 31.1283 20.4721 31.118 20.4061 31.118C20.2932 31.118 20.0079 31.038 19.9781 30.9994C19.9546 30.9684 20.2379 31.0174 20.4444 31.0793ZM6.08009 31.0922C6.0737 31.1051 6.04815 31.118 6.02472 31.118C6.00343 31.118 5.98426 31.1051 5.98426 31.0922C5.98426 31.0767 6.00982 31.0664 6.03963 31.0664C6.06944 31.0664 6.08861 31.0767 6.08009 31.0922ZM15.0352 31.2262C15.0352 31.2391 15.0203 31.234 15.0032 31.2108C14.9862 31.1902 14.9713 31.1644 14.9713 31.1541C14.9713 31.1463 14.9862 31.1515 15.0032 31.1695C15.0203 31.1876 15.0352 31.2134 15.0352 31.2262ZM19.9546 31.2211C19.9546 31.234 19.9397 31.2391 19.9227 31.2314C19.9056 31.2211 19.8907 31.2108 19.8907 31.2056C19.8907 31.2005 19.9056 31.1953 19.9227 31.1953C19.9397 31.1953 19.9546 31.2056 19.9546 31.2211ZM14.2685 31.2572C14.2685 31.2804 14.3069 31.2984 14.3814 31.3113L14.4921 31.332L14.4197 31.3577C14.3644 31.3784 14.3367 31.3758 14.2919 31.3474C14.2366 31.3087 14.2046 31.2211 14.2451 31.2211C14.2579 31.2211 14.2685 31.2366 14.2685 31.2572ZM20.3784 31.2623C20.3997 31.2855 20.3656 31.2907 20.2869 31.2778C20.2315 31.2701 20.2144 31.2598 20.2336 31.2443C20.2592 31.2262 20.355 31.2391 20.3784 31.2623ZM11.3147 31.2649C11.2998 31.2701 11.2743 31.2701 11.2615 31.2649C11.2466 31.2572 11.2572 31.252 11.287 31.252C11.3169 31.252 11.3275 31.2572 11.3147 31.2649ZM10.0838 31.2984C10.0774 31.3113 10.0561 31.3242 10.0391 31.3242C10.022 31.3242 10.0135 31.3113 10.0199 31.2984C10.0263 31.283 10.0476 31.2727 10.0646 31.2727C10.0817 31.2727 10.0902 31.283 10.0838 31.2984ZM7.21944 31.3087C7.21944 31.3165 7.21093 31.3294 7.19815 31.3371C7.1875 31.3448 7.17685 31.3397 7.17685 31.3268C7.17685 31.3113 7.1875 31.2984 7.19815 31.2984C7.21093 31.2984 7.21944 31.3036 7.21944 31.3087ZM8.67398 31.3165C8.65907 31.3216 8.62926 31.3216 8.61009 31.3165C8.5888 31.3087 8.60157 31.3036 8.63565 31.3036C8.67185 31.3036 8.68676 31.3087 8.67398 31.3165ZM7.70926 31.3629C7.73907 31.3835 7.80083 31.399 7.84982 31.4016C7.92222 31.4016 7.94139 31.4119 7.96056 31.466C7.97546 31.5021 7.98611 31.5434 7.98611 31.5562C7.98611 31.582 7.94139 31.5795 7.92222 31.5537C7.91583 31.5459 7.83065 31.5202 7.73482 31.497C7.60917 31.4686 7.53889 31.4634 7.50269 31.4815C7.44519 31.5073 7.36852 31.4918 7.36852 31.4505C7.36852 31.4377 7.39194 31.4273 7.42176 31.4273C7.45157 31.4273 7.475 31.417 7.475 31.4016C7.475 31.3887 7.45796 31.3835 7.4388 31.3938C7.4175 31.4016 7.40898 31.399 7.4175 31.3887C7.42602 31.3758 7.47926 31.3577 7.53463 31.3474C7.59 31.3397 7.63898 31.3294 7.64537 31.3294C7.65176 31.3268 7.67944 31.3423 7.70926 31.3629ZM8.1288 31.3397C8.12241 31.3474 8.10324 31.35 8.08833 31.3423C8.0713 31.3345 8.07769 31.3268 8.10111 31.3268C8.12454 31.3242 8.13731 31.332 8.1288 31.3397ZM9.22982 31.3758C9.21491 31.3938 9.15954 31.3964 9.08074 31.3835L8.95509 31.3629L9.09352 31.35C9.24685 31.3345 9.25963 31.3397 9.22982 31.3758ZM9.4662 31.35C9.47259 31.3629 9.46407 31.3758 9.44704 31.3758C9.42787 31.3758 9.41296 31.3629 9.41296 31.35C9.41296 31.3345 9.42148 31.3242 9.43213 31.3242C9.44491 31.3242 9.45982 31.3345 9.4662 31.35ZM10.2648 31.35C10.2882 31.368 10.2797 31.3758 10.2286 31.3758C10.1903 31.3758 10.1583 31.3629 10.1583 31.35C10.1583 31.3165 10.2222 31.3165 10.2648 31.35ZM9.37889 31.3732C9.38528 31.3861 9.37889 31.4093 9.36185 31.4248C9.33843 31.448 9.32991 31.4428 9.32139 31.4016C9.31074 31.35 9.35546 31.3268 9.37889 31.3732ZM15.9296 31.3758C15.9296 31.3887 15.919 31.4016 15.9062 31.4016C15.8956 31.4016 15.8913 31.3887 15.8977 31.3758C15.9041 31.3603 15.9147 31.35 15.9211 31.35C15.9254 31.35 15.9296 31.3603 15.9296 31.3758ZM8.52917 31.4273C8.53556 31.4402 8.52704 31.4531 8.50787 31.4531C8.4887 31.4531 8.48019 31.4402 8.48657 31.4273C8.49296 31.4119 8.50361 31.4016 8.50787 31.4016C8.51213 31.4016 8.52278 31.4119 8.52917 31.4273ZM8.71019 31.4273C8.73361 31.4454 8.72083 31.4531 8.6612 31.4531C8.61222 31.4531 8.58454 31.4428 8.59306 31.4273C8.61009 31.3938 8.66759 31.3938 8.71019 31.4273ZM12.8481 31.4196C12.8331 31.4248 12.8033 31.4248 12.7842 31.4196C12.7629 31.4119 12.7756 31.4067 12.8097 31.4067C12.8459 31.4067 12.8608 31.4119 12.8481 31.4196ZM15.0352 31.4583C15.0565 31.4737 15.0458 31.4789 14.9947 31.4686C14.9564 31.4609 14.8946 31.4531 14.8606 31.4531C14.8222 31.4531 14.8031 31.4428 14.8116 31.4248C14.8286 31.3938 14.9819 31.417 15.0352 31.4583ZM15.2588 31.4273C15.2524 31.4402 15.2247 31.4531 15.1992 31.4531C15.1608 31.4531 15.1587 31.448 15.1843 31.4273C15.2269 31.3938 15.2758 31.3938 15.2588 31.4273ZM20.2954 31.4531C20.2783 31.466 20.257 31.4686 20.2443 31.4609C20.2336 31.4505 20.2421 31.4351 20.2656 31.4273C20.3167 31.4041 20.338 31.4222 20.2954 31.4531ZM11.6214 31.4428C11.615 31.4505 11.5958 31.4531 11.5809 31.4454C11.5639 31.4377 11.5703 31.4299 11.5937 31.4299C11.6171 31.4273 11.6299 31.4351 11.6214 31.4428ZM15.344 31.4737C15.3206 31.4815 15.295 31.497 15.2886 31.5098C15.2801 31.5253 15.2609 31.5305 15.246 31.5253C15.2269 31.5176 15.2396 31.4995 15.2801 31.4737C15.3142 31.4505 15.3525 31.4402 15.3653 31.448C15.3759 31.4583 15.3674 31.4686 15.344 31.4737ZM8.94019 31.497C8.91889 31.5021 8.88482 31.5021 8.86565 31.497C8.84435 31.4892 8.86139 31.4841 8.90185 31.4841C8.94232 31.4841 8.95935 31.4892 8.94019 31.497ZM9.43426 31.5047C9.43426 31.5176 9.42574 31.5305 9.41296 31.5305C9.40232 31.5305 9.39167 31.5176 9.39167 31.5047C9.39167 31.4892 9.40232 31.4789 9.41296 31.4789C9.42574 31.4789 9.43426 31.4892 9.43426 31.5047ZM9.81759 31.5047C9.775 31.5382 9.73241 31.5382 9.73241 31.5047C9.73241 31.4892 9.75796 31.4789 9.79204 31.4789C9.83676 31.4789 9.84315 31.4841 9.81759 31.5047ZM10.2648 31.5047C10.2648 31.5305 10.1008 31.5202 10.0795 31.4944C10.071 31.4866 10.1115 31.4789 10.1647 31.4789C10.2201 31.4789 10.2648 31.4892 10.2648 31.5047ZM14.6731 31.5227C14.6731 31.5305 14.6561 31.5537 14.6369 31.5717C14.6029 31.6027 14.6029 31.6104 14.6306 31.6336C14.654 31.6516 14.6327 31.6594 14.5496 31.6594C14.4794 31.6594 14.441 31.6491 14.4495 31.6336C14.4559 31.6181 14.4815 31.6078 14.507 31.6078C14.5369 31.6078 14.5454 31.5949 14.5369 31.5691C14.5305 31.5485 14.5347 31.5305 14.5454 31.5305C14.5581 31.5305 14.5667 31.5408 14.5667 31.5562C14.5667 31.5691 14.5773 31.582 14.588 31.582C14.6007 31.582 14.6093 31.5588 14.6093 31.5305C14.6093 31.497 14.6199 31.4841 14.6412 31.4944C14.6582 31.5047 14.6731 31.5176 14.6731 31.5227ZM14.8861 31.5047C14.8861 31.5176 14.8776 31.5305 14.8648 31.5305C14.8542 31.5305 14.8435 31.5176 14.8435 31.5047C14.8435 31.4892 14.8542 31.4789 14.8648 31.4789C14.8776 31.4789 14.8861 31.4892 14.8861 31.5047ZM15.6166 31.5176C15.6102 31.5408 15.5761 31.5769 15.5399 31.5975C15.4824 31.6362 15.4781 31.6362 15.4888 31.5975C15.4973 31.5717 15.4909 31.5485 15.4696 31.5382C15.4206 31.515 15.476 31.4789 15.5612 31.4789C15.6144 31.4789 15.6272 31.4866 15.6166 31.5176ZM13.3677 31.5202C13.3613 31.5279 13.3421 31.5305 13.3272 31.5227C13.3102 31.515 13.3166 31.5073 13.34 31.5073C13.3634 31.5047 13.3762 31.5124 13.3677 31.5202ZM11.6704 31.5562C11.6981 31.5769 11.6981 31.582 11.6661 31.582C11.6469 31.582 11.6235 31.5691 11.6171 31.5562C11.6001 31.5227 11.6278 31.5227 11.6704 31.5562ZM16.6111 31.5562C16.6111 31.5691 16.5962 31.5743 16.5792 31.5666C16.5621 31.5562 16.5472 31.5459 16.5472 31.5408C16.5472 31.5356 16.5621 31.5305 16.5792 31.5305C16.5962 31.5305 16.6111 31.5408 16.6111 31.5562ZM15.2609 31.5949C15.2545 31.6155 15.2567 31.6336 15.2673 31.6336C15.2758 31.6336 15.2801 31.662 15.2737 31.698C15.2652 31.7599 15.2673 31.7625 15.3844 31.7625C15.4867 31.7625 15.508 31.7548 15.5378 31.698C15.5719 31.6362 15.64 31.6155 15.6869 31.6542C15.7294 31.6877 15.7358 31.8166 15.6975 31.8347C15.6783 31.8424 15.657 31.8605 15.6506 31.8734C15.6421 31.8888 15.6166 31.8811 15.5868 31.8553C15.5293 31.8089 15.3269 31.7986 15.2354 31.8398C15.2034 31.8553 15.1502 31.8605 15.1161 31.8527C15.0629 31.8373 15.0607 31.8321 15.0884 31.7986C15.1459 31.729 15.1225 31.6439 15.0565 31.6852C15.0096 31.7161 14.9862 31.6903 15.0224 31.6465C15.0416 31.6207 15.0735 31.6181 15.1289 31.6336C15.1949 31.6516 15.2098 31.6465 15.229 31.6052C15.2545 31.5459 15.2801 31.5382 15.2609 31.5949ZM19.0368 31.5975C19.0581 31.6207 18.9409 31.6052 18.9111 31.582C18.8877 31.564 18.9005 31.5614 18.9537 31.5717C18.9942 31.582 19.0325 31.5923 19.0368 31.5975ZM7.80935 31.6104C7.8413 31.6259 7.91157 31.6465 7.96482 31.6594L8.06065 31.68H7.97546C7.89454 31.68 7.63898 31.5872 7.71352 31.5846C7.73269 31.582 7.77528 31.5949 7.80935 31.6104ZM19.3008 31.6001C19.2731 31.6052 19.2263 31.6052 19.1944 31.6001C19.1603 31.5949 19.1837 31.5898 19.2412 31.5898C19.3008 31.5898 19.3264 31.5949 19.3008 31.6001ZM16.1511 31.6233C16.2086 31.6491 16.166 31.6852 16.083 31.6826C16.034 31.68 16.0212 31.6748 16.0531 31.6671C16.0787 31.662 16.1 31.6439 16.1 31.631C16.1 31.6027 16.1064 31.6027 16.1511 31.6233ZM18.5278 31.631C18.4916 31.6568 18.4277 31.6697 18.3787 31.6594C18.3425 31.6516 18.4511 31.6155 18.5171 31.6104C18.5512 31.6104 18.5533 31.613 18.5278 31.631ZM8.52917 31.6594C8.5462 31.6929 8.47593 31.6929 8.43333 31.6594C8.40778 31.6387 8.41417 31.6336 8.45889 31.6336C8.49083 31.6336 8.52278 31.6439 8.52917 31.6594ZM14.375 31.6594C14.3324 31.6929 14.3047 31.6929 14.3218 31.6594C14.3281 31.6439 14.3516 31.6336 14.3707 31.6336C14.4027 31.6336 14.4027 31.6387 14.375 31.6594ZM19.6245 31.6594C19.6394 31.6903 19.599 31.6903 19.5394 31.6594C19.501 31.6387 19.5031 31.6362 19.5543 31.6362C19.5862 31.6336 19.6181 31.6439 19.6245 31.6594ZM9.15741 31.6852C9.15741 31.698 9.14676 31.7109 9.13398 31.7109C9.12333 31.7109 9.11907 31.698 9.12546 31.6852C9.13185 31.6697 9.1425 31.6594 9.14889 31.6594C9.15315 31.6594 9.15741 31.6697 9.15741 31.6852ZM10.0242 31.6748C10.0178 31.6826 9.99861 31.6852 9.9837 31.6774C9.96667 31.6697 9.97306 31.662 9.99648 31.662C10.0199 31.6594 10.0327 31.6671 10.0242 31.6748ZM13.225 31.6852C13.2506 31.7058 13.2484 31.7109 13.2101 31.7109C13.1845 31.7109 13.1569 31.698 13.1505 31.6852C13.1334 31.6516 13.1824 31.6516 13.225 31.6852ZM14.9606 31.6852C14.9692 31.7006 14.9479 31.7109 14.9138 31.7109C14.8669 31.7109 14.8606 31.7058 14.8861 31.6852C14.9266 31.6542 14.9436 31.6542 14.9606 31.6852ZM16.5579 31.6852C16.6196 31.7032 16.6175 31.7058 16.5366 31.7058C16.4897 31.7058 16.428 31.6955 16.3981 31.6852C16.3492 31.6671 16.3513 31.6645 16.4194 31.6645C16.4599 31.6645 16.5238 31.6748 16.5579 31.6852ZM18.2829 31.6852C18.2765 31.698 18.2531 31.7109 18.2339 31.7084C18.2041 31.7084 18.2062 31.7032 18.2403 31.6852C18.2978 31.6568 18.2978 31.6568 18.2829 31.6852ZM9.01685 31.7006C9.07435 31.7264 9.05519 31.7702 8.99556 31.7522C8.95509 31.7393 8.94232 31.7445 8.95083 31.7677C8.95509 31.7857 8.98917 31.7986 9.02537 31.7986L9.09139 31.7934L9.0275 31.8708C8.98065 31.9301 8.95296 31.9455 8.9125 31.9327C8.88482 31.9249 8.855 31.9275 8.84861 31.943C8.84222 31.9559 8.7762 31.9688 8.7038 31.9688C8.58241 31.9688 8.55472 31.9378 8.65695 31.912C8.68037 31.9069 8.69741 31.8888 8.69528 31.8734C8.69315 31.8579 8.73361 31.8321 8.78472 31.8166C8.8912 31.7831 8.90398 31.7573 8.8337 31.7161C8.79111 31.6929 8.7975 31.6877 8.88482 31.6877C8.93806 31.6852 8.99769 31.6929 9.01685 31.7006ZM14.5773 31.7367C14.5858 31.7522 14.5645 31.7625 14.5305 31.7625C14.4836 31.7625 14.4772 31.7573 14.5028 31.7367C14.5432 31.7058 14.5603 31.7058 14.5773 31.7367ZM16.9412 31.7367L17.0477 31.7548L16.9093 31.7573C16.8326 31.7573 16.7517 31.7496 16.7282 31.7367C16.6942 31.7187 16.7006 31.7135 16.7602 31.7161C16.8006 31.7161 16.8837 31.7238 16.9412 31.7367ZM7.71139 31.7599C7.69435 31.7728 7.6688 31.778 7.65176 31.7702C7.60704 31.7496 7.61982 31.7367 7.6837 31.7367C7.7263 31.7367 7.73269 31.7445 7.71139 31.7599ZM7.87963 31.7625C7.87963 31.7754 7.87111 31.7883 7.85833 31.7883C7.84769 31.7883 7.83704 31.7754 7.83704 31.7625C7.83704 31.747 7.84769 31.7367 7.85833 31.7367C7.87111 31.7367 7.87963 31.747 7.87963 31.7625ZM8.5675 31.7548C8.51852 31.7599 8.4312 31.7599 8.37583 31.7548C8.32046 31.7496 8.36093 31.747 8.46528 31.747C8.57176 31.747 8.61648 31.7496 8.5675 31.7548ZM17.8314 31.7548C17.8165 31.7599 17.7909 31.7599 17.7781 31.7548C17.7632 31.747 17.7739 31.7419 17.8037 31.7419C17.8335 31.7419 17.8442 31.747 17.8314 31.7548ZM8.05852 31.7857C8.06704 31.7986 8.05213 31.8037 8.0287 31.796C7.97972 31.7805 7.97333 31.7625 8.01593 31.7625C8.03296 31.7625 8.05213 31.7728 8.05852 31.7857ZM9.71963 31.7986C9.70472 31.8476 9.63019 31.8656 9.54074 31.8424L9.4662 31.8218L9.54074 31.7934C9.65361 31.7522 9.73241 31.7548 9.71963 31.7986ZM12.3306 31.7728C12.3306 31.778 12.3114 31.7883 12.288 31.796C12.2645 31.8037 12.2496 31.7986 12.2581 31.7857C12.2688 31.7625 12.3306 31.7522 12.3306 31.7728ZM13.4699 31.7883C13.4763 31.8012 13.4742 31.8141 13.4614 31.8141C13.4507 31.8141 13.4337 31.8012 13.4273 31.7883C13.4209 31.7728 13.4231 31.7625 13.4358 31.7625C13.4465 31.7625 13.4635 31.7728 13.4699 31.7883ZM14.8009 31.7883C14.8009 31.8012 14.7924 31.8141 14.7796 31.8141C14.769 31.8141 14.7583 31.8012 14.7583 31.7883C14.7583 31.7728 14.769 31.7625 14.7796 31.7625C14.7924 31.7625 14.8009 31.7728 14.8009 31.7883ZM19.3903 31.7883C19.3328 31.7986 19.2753 31.796 19.2646 31.7857C19.2519 31.7728 19.2966 31.7651 19.3711 31.7651L19.4968 31.7702L19.3903 31.7883ZM9.92407 31.8141C9.92407 31.827 9.90917 31.8398 9.89213 31.8398C9.87509 31.8398 9.86019 31.827 9.86019 31.8141C9.86019 31.7986 9.87509 31.7883 9.89213 31.7883C9.90917 31.7883 9.92407 31.7986 9.92407 31.8141ZM14.9819 31.8141C15.0096 31.827 15.0118 31.8373 14.9926 31.8373C14.9756 31.8373 14.9415 31.827 14.9181 31.8141C14.8904 31.8012 14.8882 31.7909 14.9074 31.7909C14.9244 31.7909 14.9585 31.8012 14.9819 31.8141ZM18.5022 31.8527C18.5107 31.863 18.4554 31.863 18.3808 31.8527C18.2744 31.8373 18.2488 31.8398 18.2616 31.8656C18.2722 31.8888 18.2701 31.894 18.2552 31.8811C18.2424 31.8708 18.2105 31.8759 18.187 31.8914C18.1508 31.9146 18.1444 31.912 18.1444 31.8682C18.1444 31.827 18.1615 31.8166 18.2254 31.8089C18.3191 31.7986 18.4788 31.8244 18.5022 31.8527ZM13.3315 31.8244C13.3315 31.8321 13.323 31.845 13.3102 31.8527C13.2995 31.8605 13.2889 31.8553 13.2889 31.8424C13.2889 31.827 13.2995 31.8141 13.3102 31.8141C13.323 31.8141 13.3315 31.8192 13.3315 31.8244ZM15.9509 31.8424C15.9509 31.8734 16.0361 31.863 16.1085 31.827C16.1426 31.8089 16.1426 31.8141 16.1 31.8656C16.0574 31.9172 16.0319 31.9249 15.9147 31.9198C15.8338 31.9172 15.7806 31.9249 15.7806 31.9404C15.7806 31.9559 15.7656 31.961 15.7465 31.9507C15.7145 31.9378 15.7145 31.9327 15.7444 31.912C15.7635 31.8991 15.7742 31.8734 15.7678 31.8527C15.7571 31.8218 15.7742 31.8141 15.853 31.8141C15.9105 31.8141 15.9509 31.827 15.9509 31.8424ZM17.8463 31.8398C17.874 31.8605 17.874 31.8656 17.842 31.8656C17.8229 31.8656 17.7994 31.8527 17.7931 31.8398C17.776 31.8063 17.8037 31.8063 17.8463 31.8398ZM13.4316 31.8708C13.4529 31.9146 13.4593 31.9688 13.4422 31.9688C13.4231 31.9688 13.3528 31.8862 13.3528 31.8605C13.3528 31.827 13.4124 31.8347 13.4316 31.8708ZM12.5542 31.8914C12.5606 31.9043 12.5584 31.9172 12.5456 31.9172C12.535 31.9172 12.518 31.9043 12.5116 31.8914C12.5052 31.8759 12.5073 31.8656 12.5201 31.8656C12.5307 31.8656 12.5478 31.8759 12.5542 31.8914ZM13.2782 31.894C13.3017 31.9378 13.2761 31.9481 13.2463 31.9043C13.2293 31.8811 13.2293 31.8656 13.242 31.8656C13.2548 31.8656 13.2719 31.8785 13.2782 31.894ZM17.7356 31.8837C17.7143 31.8888 17.6802 31.8888 17.661 31.8837C17.6397 31.8759 17.6568 31.8708 17.6972 31.8708C17.7377 31.8708 17.7547 31.8759 17.7356 31.8837ZM16.5366 31.9146C16.6132 31.9352 16.6069 31.9378 16.4684 31.9404C16.3854 31.9404 16.3087 31.9301 16.3023 31.9172C16.2874 31.8862 16.4152 31.8862 16.5366 31.9146ZM9.83889 31.943C9.83889 31.9559 9.80056 31.9688 9.7537 31.9688C9.70685 31.9688 9.66852 31.9559 9.66852 31.943C9.66852 31.9275 9.70685 31.9172 9.7537 31.9172C9.80056 31.9172 9.83889 31.9275 9.83889 31.943ZM12.0963 31.943C12.0963 31.9584 12.0345 31.9688 11.9536 31.9688C11.8514 31.9688 11.8173 31.961 11.8407 31.943C11.8833 31.9095 12.0963 31.9095 12.0963 31.943ZM15.5782 31.9713C15.5889 31.9842 15.5633 31.9945 15.508 31.9945C15.4228 31.9945 15.3994 31.9739 15.4334 31.9327C15.4526 31.912 15.5484 31.9352 15.5782 31.9713ZM10.4629 31.961C10.448 31.9662 10.4224 31.9662 10.4096 31.961C10.3947 31.9533 10.4054 31.9481 10.4352 31.9481C10.465 31.9481 10.4756 31.9533 10.4629 31.961ZM11.5596 31.961C11.5383 31.9662 11.5043 31.9662 11.4851 31.961C11.4638 31.9533 11.4808 31.9481 11.5213 31.9481C11.5618 31.9481 11.5788 31.9533 11.5596 31.961ZM10.2542 31.9945C10.2606 32.01 10.252 32.0126 10.235 32.0048C10.1967 31.9868 10.1903 31.9688 10.2201 31.9688C10.2329 31.9688 10.2478 31.9791 10.2542 31.9945ZM18.0486 31.9945C18.0252 32.0074 17.9869 32.0177 17.9634 32.0177C17.9272 32.0203 17.9272 32.0152 17.9528 31.9945C17.9698 31.9816 18.0081 31.9713 18.038 31.9713C18.0869 31.9713 18.0869 31.9739 18.0486 31.9945ZM10.4501 32.0358C10.4437 32.0435 10.4245 32.0461 10.4096 32.0384C10.3926 32.0306 10.399 32.0229 10.4224 32.0229C10.4458 32.0203 10.4586 32.028 10.4501 32.0358ZM10.7674 32.0409C10.761 32.0487 10.7674 32.0719 10.7823 32.0925C10.8036 32.126 10.8015 32.1286 10.761 32.1028C10.7355 32.0848 10.6907 32.0719 10.6588 32.0719C10.5736 32.0719 10.6141 32.0306 10.7014 32.028C10.744 32.0255 10.7738 32.0306 10.7674 32.0409ZM10.8547 32.0358C10.8483 32.0435 10.8292 32.0461 10.8143 32.0384C10.7972 32.0306 10.8036 32.0229 10.827 32.0229C10.8505 32.0203 10.8632 32.028 10.8547 32.0358ZM15.9658 32.0358C15.9594 32.0435 15.9403 32.0461 15.9254 32.0384C15.9083 32.0306 15.9147 32.0229 15.9381 32.0229C15.9616 32.0203 15.9744 32.028 15.9658 32.0358ZM16.56 32.059C16.5962 32.1028 16.7091 32.1105 16.7282 32.0719C16.7368 32.0538 16.7581 32.0564 16.7879 32.077C16.8305 32.1054 16.8262 32.1105 16.7282 32.1286C16.6707 32.1389 16.6111 32.1647 16.5983 32.1879C16.577 32.2214 16.5621 32.224 16.5281 32.2008C16.4769 32.1698 16.4684 32.1363 16.5153 32.1595C16.5366 32.1698 16.5472 32.157 16.5472 32.1234C16.5472 32.059 16.56 32.059 16.3875 32.1363C16.2555 32.1982 16.2469 32.1982 16.2597 32.1518C16.2704 32.1105 16.2555 32.0951 16.1809 32.0641L16.0894 32.0255L16.3087 32.0229C16.4769 32.0203 16.5366 32.028 16.56 32.059ZM16.7027 32.0384C16.6878 32.0435 16.6622 32.0435 16.6494 32.0384C16.6345 32.0306 16.6452 32.0255 16.675 32.0255C16.7048 32.0255 16.7155 32.0306 16.7027 32.0384ZM9.68982 32.1028C9.71111 32.1183 9.67065 32.1209 9.58333 32.1105C9.50667 32.1002 9.43639 32.0822 9.42361 32.0693C9.39806 32.0384 9.64509 32.0693 9.68982 32.1028ZM11.0315 32.0719C11.0549 32.0899 11.0506 32.1002 11.0038 32.1209C10.9335 32.1544 10.8398 32.157 10.8398 32.1286C10.8398 32.0564 10.9633 32.0203 11.0315 32.0719ZM11.8769 32.0616C11.8706 32.0693 11.8514 32.0719 11.8365 32.0641C11.8194 32.0564 11.8258 32.0487 11.8493 32.0487C11.8727 32.0461 11.8855 32.0538 11.8769 32.0616ZM8.89759 32.0899C8.8763 32.0951 8.84222 32.0951 8.82306 32.0899C8.80176 32.0822 8.8188 32.077 8.85926 32.077C8.89972 32.077 8.91676 32.0822 8.89759 32.0899ZM13.6871 32.0873C13.6807 32.0951 13.6616 32.0977 13.6467 32.0899C13.6296 32.0822 13.636 32.0745 13.6594 32.0745C13.6829 32.0719 13.6956 32.0796 13.6871 32.0873ZM14.1748 32.1363C14.1727 32.2188 14.1556 32.2188 14.1109 32.1363C14.0769 32.0745 14.0769 32.0719 14.128 32.0719C14.1684 32.0719 14.1791 32.0848 14.1748 32.1363ZM17.5418 32.1363C17.5205 32.1879 17.5013 32.2008 17.4353 32.2008C17.3863 32.2008 17.3586 32.1905 17.3671 32.175C17.3735 32.1595 17.3969 32.1492 17.4161 32.1492C17.4481 32.1466 17.4481 32.1441 17.4182 32.1234C17.4012 32.1105 17.3501 32.1105 17.3011 32.1234C17.1776 32.1544 16.9391 32.1827 16.954 32.1647C16.9774 32.1337 17.2756 32.077 17.4246 32.0745L17.5652 32.0719L17.5418 32.1363ZM17.8868 32.1157C17.8591 32.1544 17.8633 32.157 17.9208 32.1415C17.957 32.1337 18.0039 32.1209 18.0273 32.1131C18.0507 32.1028 18.0422 32.1131 18.006 32.1337C17.9656 32.1595 17.8846 32.1724 17.7824 32.1698C17.6908 32.1673 17.661 32.1621 17.7121 32.157C17.7611 32.1518 17.8122 32.1286 17.825 32.108C17.8399 32.0899 17.8655 32.0719 17.8825 32.0719C17.9102 32.0719 17.9102 32.077 17.8868 32.1157ZM19.3796 32.0977C19.3796 32.1105 19.3647 32.1234 19.3456 32.1234C19.3285 32.1234 19.32 32.1105 19.3264 32.0977C19.3328 32.0822 19.3477 32.0719 19.3605 32.0719C19.3711 32.0719 19.3796 32.0822 19.3796 32.0977ZM11.1273 32.1234C11.1337 32.1363 11.1316 32.1492 11.1188 32.1492C11.1081 32.1492 11.0911 32.1363 11.0847 32.1234C11.0783 32.108 11.0805 32.0977 11.0932 32.0977C11.1039 32.0977 11.1209 32.108 11.1273 32.1234ZM13.8639 32.1234C13.8639 32.1363 13.8554 32.1492 13.8426 32.1492C13.8319 32.1492 13.8213 32.1363 13.8213 32.1234C13.8213 32.108 13.8319 32.0977 13.8426 32.0977C13.8554 32.0977 13.8639 32.108 13.8639 32.1234ZM18.3894 32.1544C18.4213 32.1698 18.4128 32.1724 18.3595 32.1621C18.3212 32.1544 18.2744 32.1492 18.2594 32.1492C18.2424 32.1492 18.2296 32.1363 18.2296 32.1234C18.2296 32.0951 18.3106 32.1105 18.3894 32.1544ZM11.6661 32.1673C11.6342 32.1724 11.5767 32.1724 11.5383 32.1673C11.5 32.1621 11.5256 32.157 11.5958 32.157C11.6661 32.157 11.6981 32.1621 11.6661 32.1673ZM18.8153 32.2008C18.8089 32.2137 18.7833 32.2266 18.7599 32.2266C18.7386 32.2266 18.7194 32.2137 18.7194 32.2008C18.7194 32.1853 18.745 32.175 18.7748 32.175C18.8046 32.175 18.8238 32.1853 18.8153 32.2008ZM10.8143 32.2188C10.7802 32.224 10.7291 32.224 10.6971 32.2188C10.6631 32.2137 10.6907 32.2085 10.7546 32.2085C10.8185 32.2085 10.8462 32.2137 10.8143 32.2188ZM13.6147 32.2188C13.5998 32.224 13.5743 32.224 13.5615 32.2188C13.5466 32.2111 13.5572 32.2059 13.587 32.2059C13.6169 32.2059 13.6275 32.2111 13.6147 32.2188ZM16.6644 32.2472C16.658 32.2549 16.6409 32.2472 16.626 32.2291C16.6069 32.2034 16.609 32.2008 16.6388 32.2162C16.6601 32.224 16.6707 32.2395 16.6644 32.2472ZM18.6662 32.2266C18.6598 32.2395 18.6428 32.2523 18.6321 32.2523C18.6194 32.2523 18.6172 32.2395 18.6236 32.2266C18.63 32.2111 18.647 32.2008 18.6577 32.2008C18.6705 32.2008 18.6726 32.2111 18.6662 32.2266ZM10.4544 32.2678C10.4586 32.273 10.3969 32.2781 10.3159 32.2755C10.2137 32.2755 10.1818 32.2678 10.2116 32.2523C10.2499 32.2317 10.4331 32.2446 10.4544 32.2678ZM16.8454 32.2523C16.8731 32.273 16.8731 32.2781 16.8411 32.2781C16.8219 32.2781 16.7985 32.2652 16.7921 32.2523C16.7751 32.2188 16.8028 32.2188 16.8454 32.2523ZM13.0653 32.2781C13.0717 32.2936 13.0546 32.3039 13.0248 32.3039C12.995 32.3039 12.9652 32.291 12.9588 32.2781C12.9524 32.2627 12.9694 32.2523 12.9993 32.2523C13.0291 32.2523 13.0589 32.2627 13.0653 32.2781ZM16.9625 32.2781C16.9689 32.291 16.9604 32.3039 16.9412 32.3039C16.922 32.3039 16.9135 32.291 16.9199 32.2781C16.9263 32.2627 16.9369 32.2523 16.9412 32.2523C16.9455 32.2523 16.9561 32.2627 16.9625 32.2781ZM17.1329 32.2781C17.1414 32.2936 17.118 32.3039 17.0754 32.3039C17.0221 32.3039 17.0136 32.2962 17.037 32.2781C17.0775 32.2446 17.1158 32.2446 17.1329 32.2781ZM11.5873 32.3013C11.5511 32.3297 11.5937 32.3658 11.6384 32.3477C11.6533 32.34 11.6725 32.3503 11.6789 32.3735C11.6895 32.4045 11.681 32.4096 11.6448 32.3967C11.4276 32.322 11.3786 32.3116 11.319 32.3323C11.2594 32.3529 11.2572 32.3503 11.2956 32.3168C11.3232 32.291 11.3871 32.2781 11.4766 32.2781C11.5639 32.2781 11.6065 32.2884 11.5873 32.3013ZM17.4949 32.3323C17.5162 32.358 17.5162 32.358 17.3139 32.3632C17.2031 32.3684 17.1755 32.3606 17.1691 32.3271C17.1627 32.291 17.184 32.2859 17.3181 32.2962C17.4033 32.3039 17.4821 32.3194 17.4949 32.3323ZM17.6014 32.3297C17.6227 32.358 17.6312 32.3812 17.6206 32.3812C17.595 32.3787 17.5269 32.3168 17.5269 32.2936C17.5269 32.2627 17.5631 32.2781 17.6014 32.3297ZM17.9911 32.2962C17.9698 32.3013 17.9315 32.3013 17.9059 32.2962C17.8782 32.291 17.8953 32.2859 17.9421 32.2859C17.989 32.2833 18.0103 32.2884 17.9911 32.2962ZM11.9685 32.3323C11.9685 32.3503 11.9877 32.3555 12.0154 32.3477C12.0409 32.3374 12.1666 32.3452 12.2965 32.3632C12.4264 32.3787 12.5116 32.3967 12.4839 32.4019C12.4498 32.407 12.437 32.4225 12.4456 32.4483C12.4541 32.4741 12.4413 32.4844 12.3987 32.4818C12.3476 32.4818 12.3455 32.4792 12.3838 32.4586C12.4477 32.4277 12.3966 32.4122 12.1559 32.3941C12.0388 32.3838 11.9472 32.3658 11.9472 32.3503C11.9472 32.3348 11.9323 32.3323 11.9131 32.34C11.8961 32.3477 11.8876 32.3452 11.894 32.3297C11.911 32.2936 11.9685 32.2962 11.9685 32.3323ZM16.33 32.4045C16.2959 32.4173 16.2682 32.3477 16.2981 32.3245C16.313 32.3142 16.33 32.3245 16.3364 32.3503C16.3449 32.3735 16.3406 32.3993 16.33 32.4045ZM17.7057 32.3452C17.7121 32.3658 17.71 32.3761 17.6972 32.3684C17.6844 32.3606 17.6759 32.3426 17.6759 32.3271C17.6759 32.291 17.6908 32.2987 17.7057 32.3452ZM11.3786 32.4251C11.3509 32.4302 11.3041 32.4302 11.2721 32.4251C11.2381 32.4199 11.2615 32.4148 11.319 32.4148C11.3786 32.4148 11.4042 32.4199 11.3786 32.4251ZM11.6022 32.4328C11.615 32.4328 11.6278 32.4431 11.6278 32.4586C11.6278 32.487 11.5639 32.4921 11.5128 32.4689C11.4595 32.4457 11.4723 32.3993 11.5277 32.4173C11.5532 32.4251 11.5873 32.4328 11.6022 32.4328ZM13.1718 32.4586C13.1888 32.4921 13.1611 32.4921 13.1185 32.4586C13.0908 32.438 13.0908 32.4328 13.1228 32.4328C13.1419 32.4328 13.1654 32.4431 13.1718 32.4586ZM13.6062 32.4844C13.6296 32.5024 13.5977 32.505 13.5019 32.4947C13.4252 32.4844 13.3549 32.4663 13.3421 32.4534C13.3144 32.4199 13.5572 32.4483 13.6062 32.4844ZM18.2232 32.4483C18.2169 32.456 18.1977 32.4586 18.1828 32.4509C18.1657 32.4431 18.1721 32.4354 18.1956 32.4354C18.219 32.4328 18.2318 32.4405 18.2232 32.4483ZM10.2222 32.4689C10.2222 32.4766 10.2137 32.4895 10.2009 32.4973C10.1903 32.505 10.1796 32.4998 10.1796 32.487C10.1796 32.4715 10.1903 32.4586 10.2009 32.4586C10.2137 32.4586 10.2222 32.4638 10.2222 32.4689ZM12.9801 32.4844C12.9737 32.4973 12.9332 32.5102 12.8928 32.5102C12.8481 32.5102 12.8225 32.5205 12.831 32.5359C12.8374 32.5488 12.8672 32.5617 12.897 32.5617C12.9545 32.5617 12.9694 32.6133 12.9119 32.6159C12.8821 32.6159 12.8843 32.621 12.9226 32.6391C12.9503 32.6545 13.012 32.6545 13.0781 32.6391C13.2165 32.6055 13.2165 32.6081 13.1867 32.6442C13.1483 32.6906 13.1547 32.7138 13.2037 32.6984C13.2271 32.6906 13.2463 32.6958 13.2463 32.7087C13.2463 32.768 12.8076 32.786 12.7458 32.7319C12.6777 32.6726 12.4562 32.7293 12.4924 32.7963C12.4988 32.8092 12.4839 32.8195 12.4605 32.8195C12.4392 32.8195 12.4008 32.8273 12.3795 32.8376C12.3433 32.853 12.3433 32.8505 12.3838 32.7963C12.4179 32.7473 12.42 32.7345 12.3944 32.7138C12.3774 32.7009 12.3199 32.6958 12.2667 32.7009C12.2134 32.7087 12.141 32.7164 12.1048 32.7216C12.0686 32.7267 12.026 32.7164 12.0132 32.6984C11.9941 32.6726 12.0005 32.6648 12.0431 32.6648C12.0984 32.6648 12.1155 32.6287 12.0707 32.603C12.0558 32.5952 12.0729 32.5952 12.1069 32.603C12.2283 32.6339 12.5861 32.6442 12.5861 32.6184C12.5861 32.5823 12.4775 32.5617 12.4349 32.5901C12.4008 32.6107 12.3731 32.5978 12.3731 32.5566C12.3731 32.5462 12.3795 32.5385 12.3902 32.5385C12.4647 32.554 12.7565 32.5308 12.7458 32.5127C12.7394 32.4973 12.7799 32.4818 12.8353 32.4766C12.8928 32.4715 12.9503 32.4663 12.9652 32.4638C12.9801 32.4612 12.9865 32.4689 12.9801 32.4844ZM18.3574 32.4844C18.3169 32.5179 18.2935 32.5179 18.2935 32.4844C18.2935 32.4689 18.3148 32.4586 18.3425 32.4586C18.3808 32.4586 18.383 32.4638 18.3574 32.4844ZM13.1143 32.554C13.093 32.5591 13.0546 32.5591 13.0291 32.554C13.0014 32.5488 13.0184 32.5437 13.0653 32.5437C13.1121 32.5411 13.1334 32.5462 13.1143 32.554ZM13.4018 32.554C13.3869 32.5591 13.357 32.5591 13.3379 32.554C13.3166 32.5462 13.3294 32.5411 13.3634 32.5411C13.3996 32.5411 13.4145 32.5462 13.4018 32.554ZM11.5 32.6133C11.5 32.6262 11.4957 32.6391 11.4915 32.6391C11.4851 32.6391 11.4744 32.6262 11.4681 32.6133C11.4617 32.5978 11.4659 32.5875 11.4766 32.5875C11.4894 32.5875 11.5 32.5978 11.5 32.6133ZM11.6917 32.6133C11.7172 32.6339 11.7108 32.6391 11.6661 32.6391C11.6342 32.6391 11.6022 32.6262 11.5958 32.6133C11.5788 32.5798 11.6491 32.5798 11.6917 32.6133ZM10.5523 32.6391C10.5459 32.652 10.531 32.6648 10.5182 32.6648C10.5076 32.6648 10.4991 32.652 10.4991 32.6391C10.4991 32.6236 10.514 32.6133 10.5331 32.6133C10.5502 32.6133 10.5587 32.6236 10.5523 32.6391ZM11.8301 32.6391C11.8365 32.652 11.8322 32.6648 11.8216 32.6648C11.8088 32.6648 11.7981 32.652 11.7981 32.6391C11.7981 32.6236 11.8024 32.6133 11.8067 32.6133C11.8131 32.6133 11.8237 32.6236 11.8301 32.6391ZM13.3954 32.6391C13.3954 32.67 13.3443 32.67 13.2676 32.6391C13.2229 32.621 13.2271 32.6184 13.3059 32.6159C13.3549 32.6133 13.3954 32.6236 13.3954 32.6391Z" fill="#003755"/>
<path d="M12.0537 32.9613C12.0303 32.9948 12.0431 33 12.1474 33C12.2156 33 12.2646 32.9897 12.2582 32.9768C12.2497 32.9639 12.2582 32.9459 12.271 32.9407C12.2859 32.933 12.2497 32.9252 12.19 32.9252C12.1176 32.9227 12.0708 32.9355 12.0537 32.9613Z" fill="#003755"/>
</svg>
