<svg width="35" height="30" viewBox="0 0 35 30" fill="none" xmlns="http://www.w3.org/2000/svg">
<path fill-rule="evenodd" clip-rule="evenodd" d="M2.95315 0H32.0471C33.6715 0 35 1.35075 35 3.00177C35 4.65278 33.6715 6.00382 32.0471 6.00382H2.95315C1.32903 6.00382 0 4.65307 0 3.00206C0 1.35075 1.32903 0 2.95315 0ZM2.95315 23.9965H32.0471C33.6715 23.9965 35 25.3472 35 26.9982C35 28.6492 33.6715 30 32.0471 30H2.95315C1.32903 30 0 28.6492 0 26.9982C0 25.3472 1.32903 23.9965 2.95315 23.9965ZM2.95315 11.9984H32.0471C33.6715 11.9984 35 13.3491 35 15.0001C35 16.6512 33.6715 18.0022 32.0471 18.0022H2.95315C1.32903 18.0022 0 16.6512 0 15.0001C0 13.3491 1.32903 11.9984 2.95315 11.9984Z" fill="#003755"/>
</svg>
