<svg width="800" height="800" viewBox="0 0 800 800" fill="none" xmlns="http://www.w3.org/2000/svg">
<path d="M786.798 628.259H769.05L610.247 401.791C607.775 398.267 603.742 396.169 599.438 396.169C595.133 396.169 591.098 398.267 588.628 401.791L546.334 462.103L421.305 192.583C419.141 187.92 414.467 184.936 409.328 184.936C404.189 184.936 399.514 187.92 397.352 192.583L286.961 430.584L220.653 287.636C218.489 282.973 213.819 279.989 208.677 279.989C203.536 279.989 198.863 282.973 196.7 287.636L38.6984 628.261H13.2016C5.91094 628.261 0 634.172 0 641.463C0 648.753 5.91094 654.664 13.2016 654.664H786.798C794.089 654.664 800 648.753 800 641.463C800 634.172 794.089 628.259 786.798 628.259ZM599.438 432.366L612.372 450.809L596.741 465.323L584.316 453.933L599.438 432.366ZM409.33 229.514L451.708 320.869L435.669 308.991C430.719 305.325 423.894 305.569 419.219 309.577L379.177 343.898L370.181 313.916L409.33 229.514ZM208.677 324.567L231.703 374.208L202.498 394.023L181.517 383.114L208.677 324.567ZM67.8031 628.263L170.397 407.092L197.306 421.084C199.222 422.081 201.311 422.573 203.395 422.573C205.994 422.573 208.581 421.808 210.808 420.295L242.961 398.478L272.408 461.963L259.283 490.259L245.445 480.266C242.344 478.027 238.422 477.242 234.7 478.114C230.975 478.988 227.814 481.434 226.033 484.819L150.538 628.261H67.8031V628.263ZM180.375 628.256L242.316 510.57L277.513 535.992C283.423 540.261 291.673 538.928 295.944 533.019C300.213 527.108 298.881 518.856 292.97 514.587L281.084 506.003L353.442 350.002L359.717 370.917C361 375.195 364.361 378.534 368.645 379.792C369.869 380.152 371.119 380.325 372.361 380.325C375.473 380.325 378.528 379.225 380.953 377.145L428.409 336.467L474.925 370.917L556.402 546.555L549.873 551.27C543.963 555.539 542.631 563.791 546.9 569.702C551.169 575.613 559.419 576.944 565.331 572.675L585.52 558.095L622.447 628.256H180.375ZM652.287 628.261L601.805 532.344C600.023 528.959 596.863 526.514 593.138 525.639C589.413 524.764 585.494 525.55 582.392 527.791L578.206 530.812L559.172 489.783L569.022 475.736L587.875 493.019C590.398 495.331 593.597 496.489 596.794 496.489C600.02 496.489 603.245 495.312 605.777 492.961L627.67 472.633L736.8 628.261H652.287Z" fill="#003755"/>
<path d="M786.798 678.427H13.2016C5.91094 678.427 0 684.338 0 691.628C0 698.919 5.91094 704.83 13.2016 704.83H786.798C794.089 704.83 800 698.919 800 691.628C800 684.338 794.089 678.427 786.798 678.427Z" fill="#003755"/>
<path d="M515.519 507.883L497.036 478.841C494.884 475.462 491.319 473.244 487.339 472.805C483.356 472.366 479.395 473.761 476.563 476.592L475.713 477.442L442.948 381.337C440.597 374.437 433.094 370.75 426.192 373.102C419.291 375.455 415.603 382.956 417.956 389.858L457.564 506.031C459.034 510.347 462.628 513.598 467.069 514.63C471.509 515.662 476.169 514.33 479.392 511.106L483.595 506.903L493.242 522.061C495.759 526.014 500.03 528.177 504.394 528.177C506.817 528.177 509.272 527.509 511.469 526.109C517.62 522.194 519.434 514.034 515.519 507.883Z" fill="#003755"/>
<path d="M378.966 446.392C371.705 445.661 365.241 450.959 364.516 458.216L353.955 563.827C353.23 571.081 358.522 577.55 365.778 578.275C366.223 578.319 366.667 578.342 367.108 578.342C373.808 578.342 379.547 573.262 380.228 566.453L390.789 460.842C391.514 453.586 386.22 447.117 378.966 446.392Z" fill="#003755"/>
<path d="M190.816 463.561C184.297 460.303 176.366 462.944 173.103 469.466L138.781 538.112C135.519 544.634 138.164 552.564 144.686 555.825C146.58 556.773 148.595 557.222 150.58 557.222C155.422 557.222 160.084 554.547 162.398 549.92L196.722 481.273C199.981 474.752 197.337 466.822 190.816 463.561Z" fill="#003755"/>
<path d="M611.314 95.1703C555.263 95.1703 509.663 140.772 509.663 196.822C509.663 252.872 555.264 298.472 611.314 298.472C667.364 298.472 712.966 252.872 712.966 196.822C712.966 140.772 667.366 95.1703 611.314 95.1703ZM611.314 272.067C569.822 272.067 536.067 238.313 536.067 196.822C536.067 155.331 569.824 121.573 611.314 121.573C652.805 121.573 686.563 155.331 686.563 196.822C686.563 238.313 652.806 272.067 611.314 272.067Z" fill="#003755"/>
</svg>
