<svg width="480" height="478" viewBox="0 0 480 478" fill="none" xmlns="http://www.w3.org/2000/svg">
<path d="M460.167 321.125L458.602 319.567C472.404 303.437 479.907 283.223 479.907 261.682C479.907 212.313 439.575 172.149 390 172.149C355.187 172.149 323.764 192.385 308.984 222.853L285.001 198.969L234.763 248.998L245.238 259.43L285 219.833L342.025 276.619L332.263 286.341L342.739 296.772L378.751 260.91L439.217 321.124H295.167L172.501 198.97L92.2622 278.873L102.738 289.305L172.5 219.834L274.217 321.126H115.166L67.4991 273.658L19.8328 321.126H0V335.879H480V321.126H460.167V321.125ZM40.7841 321.125L67.5 294.521L94.2159 321.125H40.7841V321.125ZM378.75 240.048L352.5 266.189L320.22 234.044C331.462 205.949 359.133 186.905 390.001 186.905C431.408 186.905 465.094 220.45 465.094 261.684C465.094 279.26 459.096 295.767 448.073 309.082L378.75 240.048Z" fill="#003755"/>
<path d="M60.2465 351.615H29.6296V366.367H60.2465V351.615Z" fill="#003755"/>
<path d="M150.123 366.368H60.2466V381.121H150.123V366.368Z" fill="#003755"/>
<path d="M307.161 358.5H232.099V373.253H307.161V358.5Z" fill="#003755"/>
<path d="M217.284 381.121H187.655V395.874H217.284V381.121Z" fill="#003755"/>
<path d="M434.568 388.989H322.963V403.742H434.568V388.989Z" fill="#003755"/>
<path d="M344.692 358.5H322.963V373.253H344.692V358.5Z" fill="#003755"/>
<path d="M194.568 418.495H119.506V433.248H194.568V418.495Z" fill="#003755"/>
<path d="M262.716 433.249H210.37V448.002H262.716V433.249Z" fill="#003755"/>
<path d="M142.223 172.611H82.9631V187.364H142.223V172.611Z" fill="#003755"/>
<path d="M82.9622 187.364H52.3453V202.117H82.9622V187.364Z" fill="#003755"/>
<path d="M315.062 97.8621H202.469V112.615H315.062V97.8621Z" fill="#003755"/>
<path d="M225.185 127.368H89.8762V142.121H225.185V127.368Z" fill="#003755"/>
<path d="M404.938 60.4875H285.432V75.2402H404.938V60.4875Z" fill="#003755"/>
<path d="M179.752 97.8621H157.037V112.615H179.752V97.8621Z" fill="#003755"/>
<path d="M254.815 29.9983H217.284V44.7509H254.815V29.9983Z" fill="#003755"/>
</svg>
