<svg width="491" height="465" viewBox="0 0 491 465" fill="none" xmlns="http://www.w3.org/2000/svg">
<path d="M134.161 118.72C134.155 120.412 134.286 121.574 134.332 121.936L149.592 120.954C149.593 120.037 149.561 119.136 149.497 118.249C149.575 116.113 150.099 112.39 152.556 109.499C155.206 106.38 159.787 104.692 166.173 104.482L165.67 89.166C154.93 89.519 146.667 92.933 141.103 99.315C138.485 96.725 135.29 94.563 131.555 92.89C123.546 89.301 115.788 89.166 114.93 89.162L114.867 104.486C114.918 104.486 120.236 104.609 125.289 106.874C130.731 109.312 133.591 113.108 134.161 118.72Z" fill="#003755"/>
<path d="M264 0V329.476L429.113 250.243L264 0ZM279 51.051L383.724 209.769C381.22 212.363 374.335 218.568 365.332 219.083C357.765 219.514 349.958 215.78 342.156 207.978C326.122 191.944 303.497 188.207 279 197.179V51.051ZM279 213.716V213.715C292.359 207.733 314.528 202.023 331.32 218.814C341.699 229.193 352.71 234.444 364.083 234.443C364.789 234.443 365.499 234.422 366.208 234.382C378.101 233.702 387.227 227.321 392.298 222.763L406.326 244.024L279 305.124V213.716Z" fill="#003755"/>
<path d="M105.727 436.698C86.871 441.765 73.139 451.756 72.563 452.179L81.627 464.535C81.748 464.447 93.938 455.641 110.112 451.389C130.565 446.008 147.828 450.177 161.423 463.771L172.259 452.935C154.667 435.343 131.663 429.727 105.727 436.698Z" fill="#003755"/>
<path d="M411.581 423.148L472.432 344.004H78.07L105.865 383.477C43.575 385.172 3.073 403.492 0 404.876V421.307C0 421.307 109.727 372.216 239.379 422.477C279.052 437.861 317.395 443.354 352.249 443.354C436.96 443.346 486.365 417.155 490.032 415.217L490.275 398.383C489.658 398.706 458.947 414.649 411.581 423.148ZM244.916 408.185C201.019 391.165 160.449 384.573 125.458 383.51C125.351 383.507 125.246 383.506 125.14 383.503C125.247 383.506 125.352 383.507 125.459 383.51L108.906 360.003H439.948L388.877 426.426H388.876C347.78 430.923 297.598 428.611 244.916 408.185ZM409.879 423.439C403.557 424.541 396.951 425.507 390.081 426.283C396.95 425.506 403.556 424.54 409.879 423.439Z" fill="#003755"/>
<path d="M50.9791 219.186C50.9731 220.878 51.1041 222.04 51.1501 222.402L66.4101 221.42C66.4111 220.503 66.3791 219.602 66.3151 218.715C66.3931 216.579 66.9171 212.856 69.3741 209.965C72.0241 206.846 76.6051 205.158 82.9911 204.948L82.4881 189.632C71.7481 189.985 63.4851 193.399 57.9211 199.781C55.3031 197.191 52.1081 195.029 48.3731 193.356C40.3641 189.767 32.6061 189.632 31.7481 189.628L31.6851 204.952C31.7361 204.952 37.0541 205.075 42.1071 207.34C47.5491 209.779 50.4091 213.574 50.9791 219.186Z" fill="#003755"/>
<path d="M418.765 150.226C418.759 151.918 418.89 153.08 418.936 153.442L434.196 152.46C434.197 151.543 434.165 150.642 434.101 149.755C434.179 147.619 434.703 143.896 437.16 141.005C439.81 137.886 444.391 136.198 450.777 135.988L450.274 120.672C439.534 121.025 431.271 124.439 425.707 130.821C423.089 128.231 419.894 126.069 416.159 124.396C408.15 120.807 400.392 120.672 399.534 120.668L399.471 135.992C399.522 135.992 404.84 136.115 409.893 138.38C415.335 140.819 418.195 144.614 418.765 150.226Z" fill="#003755"/>
<path d="M374 383.003H336V399.003H374V383.003Z" fill="#003755"/>
<path d="M246 329.004V104.64L146.945 329.004H246ZM231 314.003H170.439L231 177.457V314.003Z" fill="#003755"/>
</svg>
